<?xml version="1.0" encoding="UTF-8" standalone="no"?>
<!-- Created with Inkscape (http://www.inkscape.org/) -->

<svg
   width="250"
   height="95"
   viewBox="0 0 66.145834 25.135417"
   version="1.1"
   id="svg1"
   xml:space="preserve"
   xmlns:xlink="http://www.w3.org/1999/xlink"
   xmlns="http://www.w3.org/2000/svg"
   xmlns:svg="http://www.w3.org/2000/svg"><defs
     id="defs1"><linearGradient
       id="linearGradient18"><stop
         style="stop-color:#e9eeed;stop-opacity:1;"
         offset="0"
         id="stop18" /><stop
         style="stop-color:#f2f2f2;stop-opacity:0;"
         offset="1"
         id="stop19" /></linearGradient><rect
       x="227.27274"
       y="565.65656"
       width="380.80807"
       height="48.484848"
       id="rect14" /><linearGradient
       xlink:href="#linearGradient18"
       id="linearGradient19"
       x1="112.51472"
       y1="160.88785"
       x2="112.53997"
       y2="176.65598"
       gradientUnits="userSpaceOnUse"
       gradientTransform="matrix(0.38909312,0,0,0.45045133,-10.606719,-52.488192)" /></defs><rect
     style="fill:url(#linearGradient19);fill-opacity:1;stroke:#b3b3b3;stroke-width:0;stroke-dasharray:none;stroke-opacity:1"
     id="rect15"
     width="66.145836"
     height="27.929335"
     x="-1.2437904e-06"
     y="-8.7146856e-07"
     rx="1.9454657"
     ry="2.2522569" /><rect
     style="fill:#2a2a2a;fill-opacity:1;stroke-width:0.219815"
     id="rect1"
     width="58.363972"
     height="13.61826"
     x="3.7862144"
     y="5.6326737"
     rx="4.2455573"
     ry="4.0643859" /><g
     id="g4"
     transform="matrix(0.35666871,0,0,0.35666871,-4.4031716,-40.718037)"
     style="fill:#3c3c3c;fill-opacity:1"><path
       style="fill:#3c3c3c;fill-opacity:1;stroke:none;stroke-width:0.130021;stroke-opacity:1"
       id="path2"
       d="m 177.92328,148.5 a 6,6 0 0 1 -5.8701,5.99859 6,6 0 0 1 -6.12428,-5.73885 6,6 0 0 1 5.60492,-6.24709 6,6 0 0 1 6.36697,5.46835" /><path
       style="fill:#3c3c3c;fill-opacity:1;stroke:#ffffff;stroke-width:0.482231;stroke-opacity:1"
       d="m 175.43847,146.65945 -3.51519,3.51092 -3.51519,-3.51092"
       id="path3" /></g><ellipse
     style="fill:none;fill-opacity:1;stroke:#ffffff;stroke-width:0.753467;stroke-dasharray:none;stroke-opacity:1"
     id="path4"
     cx="8.5780125"
     cy="12.224566"
     rx="1.9578258"
     ry="1.9578253" /><g
     id="text4"
     style="font-weight:500;font-size:8.46667px;line-height:9.00002px;font-family:Roboto;-inkscape-font-specification:'Roboto Medium';letter-spacing:0px;fill:#e6e6e6;stroke-width:2.11667"
     aria-label="DayTempo • now "
     transform="scale(0.38909313)"><path
       style="font-weight:600;font-family:Nunito;-inkscape-font-specification:'Nunito Semi-Bold';fill:#cccccc"
       d="m 33.453602,28.858284 q -0.2286,0 -0.3556,-0.118533 -0.118533,-0.127 -0.118533,-0.355601 v -5.020735 q 0,-0.2286 0.118533,-0.347133 0.127,-0.127 0.3556,-0.127 h 1.634068 q 1.4732,0 2.269067,0.770467 0.804334,0.762 0.804334,2.2098 0,0.719667 -0.2032,1.278468 -0.2032,0.5588 -0.601134,0.9398 -0.389466,0.372534 -0.956733,0.575734 -0.567267,0.194733 -1.312334,0.194733 z m 0.406401,-0.7366 h 1.176867 q 0.5588,0 0.9652,-0.135467 0.414867,-0.143933 0.694267,-0.423334 0.2794,-0.2794 0.414867,-0.702733 0.135467,-0.423334 0.135467,-0.990601 0,-1.126067 -0.558801,-1.684867 -0.550333,-0.5588 -1.651,-0.5588 h -1.176867 z m 6.705598,0.8128 q -0.4318,0 -0.778934,-0.169333 -0.338667,-0.169334 -0.5334,-0.457201 -0.194733,-0.287866 -0.194733,-0.651933 0,-0.4572 0.2286,-0.719667 0.237066,-0.270934 0.770467,-0.381 0.541867,-0.118534 1.456267,-0.118534 h 0.397933 v 0.524934 h -0.389466 q -0.609601,0 -0.965201,0.05927 -0.3556,0.05927 -0.508,0.2032 -0.143933,0.135466 -0.143933,0.381 0,0.321733 0.220133,0.524933 0.220133,0.194734 0.6096,0.194734 0.313267,0 0.550334,-0.143934 0.237067,-0.1524 0.372533,-0.4064 0.143934,-0.254 0.143934,-0.5842 v -0.973667 q 0,-0.4826 -0.2032,-0.694267 -0.2032,-0.211667 -0.668867,-0.211667 -0.270934,0 -0.567267,0.06773 -0.287867,0.06773 -0.601134,0.2286 -0.143933,0.06773 -0.245533,0.04233 -0.1016,-0.0254 -0.160867,-0.110067 -0.05927,-0.09313 -0.06773,-0.194733 0,-0.110067 0.0508,-0.211667 0.05927,-0.1016 0.194733,-0.1524 0.372534,-0.1778 0.7366,-0.254 0.364067,-0.0762 0.685801,-0.0762 0.567267,0 0.931333,0.1778 0.372534,0.1778 0.550334,0.541867 0.1778,0.364067 0.1778,0.9398 v 2.175935 q 0,0.2032 -0.1016,0.321733 -0.1016,0.110067 -0.296334,0.110067 -0.186266,0 -0.296333,-0.110067 -0.110067,-0.118533 -0.110067,-0.321733 v -0.550334 h 0.0762 q -0.06773,0.313267 -0.254,0.541867 -0.1778,0.220133 -0.448733,0.338667 -0.270934,0.118533 -0.618067,0.118533 z m 4.157147,1.507067 q -0.1524,0 -0.254,-0.08467 -0.09313,-0.0762 -0.110067,-0.211667 -0.0085,-0.127 0.0508,-0.2794 l 0.575734,-1.295401 v 0.364067 l -1.583268,-3.683001 q -0.05927,-0.1524 -0.04233,-0.287867 0.01693,-0.135467 0.127,-0.211667 0.110067,-0.08467 0.296334,-0.08467 0.160866,0 0.254,0.0762 0.09313,0.0762 0.169333,0.262467 l 1.278467,3.158068 h -0.237067 l 1.295401,-3.158068 q 0.0762,-0.194733 0.1778,-0.262467 0.1016,-0.0762 0.2794,-0.0762 0.1524,0 0.237067,0.08467 0.09313,0.0762 0.110067,0.211667 0.0254,0.127 -0.04233,0.2794 l -2.116667,4.868335 q -0.08467,0.194734 -0.194734,0.262467 -0.1016,0.06773 -0.270933,0.06773 z m 5.418673,-1.524 q -0.211667,0 -0.3302,-0.118534 -0.110067,-0.118533 -0.110067,-0.3302 V 23.625882 H 47.90622 q -0.1778,0 -0.2794,-0.09313 -0.1016,-0.1016 -0.1016,-0.279401 0,-0.1778 0.1016,-0.270933 0.1016,-0.09313 0.2794,-0.09313 h 4.461935 q 0.186267,0 0.287867,0.09313 0.1016,0.09313 0.1016,0.270933 0,0.177801 -0.1016,0.279401 -0.1016,0.09313 -0.287867,0.09313 h -1.794934 v 4.842935 q 0,0.211667 -0.110066,0.3302 -0.1016,0.118534 -0.321734,0.118534 z m 4.469274,0.01693 q -0.677334,0 -1.1684,-0.254 -0.482601,-0.262467 -0.753534,-0.7366 -0.262467,-0.482601 -0.262467,-1.143001 0,-0.643467 0.262467,-1.126067 0.262467,-0.4826 0.719667,-0.753534 0.4572,-0.270933 1.0414,-0.270933 0.4318,0 0.770467,0.143933 0.338667,0.135467 0.575734,0.406401 0.245533,0.262466 0.364067,0.643466 0.127,0.381001 0.127,0.855134 0,0.143934 -0.08467,0.220134 -0.08467,0.06773 -0.254,0.06773 H 53.103625 V 26.46221 h 2.607734 l -0.143933,0.118534 q 0,-0.423334 -0.127,-0.719667 -0.118534,-0.296334 -0.364067,-0.448734 -0.237067,-0.160866 -0.592667,-0.160866 -0.397934,0 -0.677334,0.186266 -0.270933,0.186267 -0.414867,0.516467 -0.143933,0.3302 -0.143933,0.770467 v 0.0508 q 0,0.745067 0.347134,1.126067 0.3556,0.372534 1.024467,0.372534 0.254,0 0.5334,-0.06773 0.287867,-0.06773 0.541867,-0.2286 0.143933,-0.08467 0.254,-0.0762 0.118533,0.0085 0.186267,0.0762 0.0762,0.06773 0.09313,0.169334 0.01693,0.1016 -0.03387,0.211666 -0.0508,0.101601 -0.1778,0.186267 -0.287867,0.194734 -0.668867,0.296334 -0.381,0.09313 -0.7366,0.09313 z m 3.048007,-0.01693 q -0.2032,0 -0.313266,-0.110067 -0.110067,-0.118533 -0.110067,-0.321733 v -3.386668 q 0,-0.211667 0.110067,-0.321734 0.110066,-0.110067 0.3048,-0.110067 0.2032,0 0.3048,0.110067 0.110067,0.110067 0.110067,0.321734 v 0.694266 l -0.09313,-0.186266 q 0.169334,-0.448734 0.524934,-0.702734 0.3556,-0.254 0.855133,-0.254 0.516467,0 0.838201,0.245533 0.321733,0.245534 0.440267,0.753534 H 60.51197 q 0.160867,-0.465667 0.550334,-0.728134 0.389467,-0.270933 0.905933,-0.270933 0.474134,0 0.778934,0.186267 0.3048,0.1778 0.4572,0.550333 0.1524,0.364067 0.1524,0.922867 v 2.175935 q 0,0.2032 -0.118533,0.321733 -0.110067,0.110067 -0.313267,0.110067 -0.2032,0 -0.313267,-0.110067 -0.110066,-0.118533 -0.110066,-0.321733 V 26.35215 q 0,-0.524934 -0.186267,-0.770467 -0.1778,-0.245534 -0.592667,-0.245534 -0.465667,0 -0.7366,0.321734 -0.270934,0.321733 -0.270934,0.889 v 1.938868 q 0,0.2032 -0.110066,0.321733 -0.110067,0.110067 -0.313267,0.110067 -0.2032,0 -0.321734,-0.110067 -0.110066,-0.118533 -0.110066,-0.321733 V 26.35215 q 0,-0.524934 -0.177801,-0.770467 -0.1778,-0.245534 -0.592666,-0.245534 -0.465667,0 -0.736601,0.321734 -0.262466,0.321733 -0.262466,0.889 v 1.938868 q 0,0.4318 -0.431801,0.4318 z m 7.315197,1.524 q -0.2032,0 -0.313266,-0.110066 -0.110067,-0.110067 -0.110067,-0.321734 v -4.910668 q 0,-0.211667 0.110067,-0.321734 0.110066,-0.110067 0.3048,-0.110067 0.2032,0 0.313267,0.110067 0.110066,0.110067 0.110066,0.321734 v 0.7366 l -0.09313,-0.1778 q 0.135467,-0.4572 0.5334,-0.728134 0.397934,-0.2794 0.9398,-0.2794 0.550334,0 0.956734,0.262467 0.414867,0.262467 0.635,0.7366 0.228601,0.474134 0.228601,1.143001 0,0.651933 -0.228601,1.143 -0.220133,0.4826 -0.626533,0.745067 -0.4064,0.254 -0.965201,0.254 -0.5334,0 -0.931333,-0.270933 -0.397934,-0.270934 -0.5334,-0.719667 h 0.1016 v 2.065867 q 0,0.211667 -0.118534,0.321734 -0.110066,0.110066 -0.313267,0.110066 z m 1.583268,-2.167467 q 0.3556,0 0.618067,-0.169334 0.262466,-0.169333 0.4064,-0.499533 0.143933,-0.3302 0.143933,-0.8128 0,-0.728134 -0.321733,-1.100668 -0.313267,-0.372533 -0.846667,-0.372533 -0.347134,0 -0.618067,0.169333 -0.262467,0.160867 -0.4064,0.491067 -0.143934,0.3302 -0.143934,0.812801 0,0.719666 0.321734,1.100667 0.321733,0.381 0.846667,0.381 z m 4.792132,0.6604 q -0.626533,0 -1.083733,-0.262467 -0.448734,-0.262467 -0.702734,-0.745067 -0.254,-0.4826 -0.254,-1.134533 0,-0.499534 0.143933,-0.889001 0.143934,-0.389467 0.406401,-0.668867 0.270933,-0.287867 0.643466,-0.4318 0.381001,-0.1524 0.846667,-0.1524 0.618067,0 1.066801,0.262467 0.4572,0.262467 0.7112,0.745067 0.254,0.474133 0.254,1.134534 0,0.491066 -0.143933,0.889 -0.143934,0.397933 -0.414867,0.677333 -0.262467,0.279401 -0.643467,0.431801 -0.372533,0.143933 -0.829734,0.143933 z m 0,-0.6604 q 0.347134,0 0.609601,-0.169334 0.262466,-0.169333 0.4064,-0.499533 0.1524,-0.3302 0.1524,-0.8128 0,-0.728134 -0.321734,-1.100668 -0.321733,-0.372533 -0.846667,-0.372533 -0.3556,0 -0.618066,0.169333 -0.262467,0.160867 -0.414867,0.491067 -0.143934,0.3302 -0.143934,0.812801 0,0.719666 0.321734,1.100667 0.321733,0.381 0.855133,0.381 z"
       id="path5" /><path
       style="font-weight:300;font-size:4.23333px;font-family:Nunito;-inkscape-font-specification:'Nunito Light';fill:#cccccc"
       d="m 77.055833,28.485751 q -0.207433,0 -0.380999,-0.09737 -0.173567,-0.1016 -0.2794,-0.270933 -0.105833,-0.169333 -0.105833,-0.380999 0,-0.194734 0.09737,-0.364067 0.1016,-0.173566 0.275167,-0.2794 0.173566,-0.110066 0.393699,-0.110066 0.2032,0 0.376767,0.09737 0.1778,0.09737 0.283633,0.270934 0.105833,0.169333 0.105833,0.385233 0,0.207433 -0.105833,0.376766 -0.1016,0.169333 -0.275167,0.270933 -0.173566,0.1016 -0.385233,0.1016 z"
       id="path6" /><path
       style="font-size:4.93889px;font-family:Nunito;-inkscape-font-specification:'Nunito Medium';fill:#cccccc"
       d="m 79.992362,28.892856 q -0.103717,0 -0.162984,-0.05927 -0.05927,-0.05927 -0.05927,-0.172862 v -2.015067 q 0,-0.113594 0.05927,-0.167922 0.05927,-0.05927 0.162984,-0.05927 0.103716,0 0.158044,0.05927 0.05927,0.05433 0.05927,0.167922 v 0.404989 l -0.05433,-0.07408 q 0.103717,-0.281517 0.335845,-0.424745 0.237066,-0.143227 0.538339,-0.143227 0.291394,0 0.479072,0.103716 0.187678,0.103717 0.281517,0.316089 0.09384,0.212372 0.09384,0.538339 v 1.293989 q 0,0.113595 -0.05927,0.172862 -0.05433,0.05927 -0.162984,0.05927 -0.108655,0 -0.167922,-0.05927 -0.05927,-0.05927 -0.05927,-0.172862 v -1.269294 q 0,-0.321028 -0.123472,-0.469195 -0.123472,-0.148167 -0.395111,-0.148167 -0.316089,0 -0.508706,0.197556 -0.187677,0.192617 -0.187677,0.523522 v 1.165578 q 0,0.232128 -0.227189,0.232128 z m 3.625146,0.0099 q -0.3556,0 -0.617361,-0.153106 -0.261761,-0.153105 -0.404989,-0.434622 -0.143228,-0.281517 -0.143228,-0.661811 0,-0.286456 0.07902,-0.513645 0.08396,-0.232128 0.237066,-0.395111 0.153106,-0.162983 0.365478,-0.246944 0.217311,-0.0889 0.484011,-0.0889 0.3556,0 0.617362,0.153105 0.261761,0.153106 0.404989,0.434622 0.143227,0.276578 0.143227,0.656873 0,0.286455 -0.08396,0.518583 -0.07902,0.232128 -0.232128,0.395111 -0.153105,0.162984 -0.370416,0.251884 -0.212373,0.08396 -0.479073,0.08396 z m 0,-0.3556 q 0.217311,0 0.375356,-0.103717 0.162983,-0.103716 0.246944,-0.301272 0.0889,-0.197556 0.0889,-0.48895 0,-0.434622 -0.192616,-0.661811 -0.192617,-0.227189 -0.518584,-0.227189 -0.212372,0 -0.375355,0.103716 -0.158045,0.09878 -0.246945,0.296334 -0.0889,0.197555 -0.0889,0.48895 0,0.434622 0.192617,0.66675 0.197555,0.227189 0.518583,0.227189 z m 2.55858,0.345722 q -0.09384,0 -0.162984,-0.04445 -0.06914,-0.04939 -0.108655,-0.158044 l -0.735895,-1.96074 q -0.03457,-0.09384 -0.01976,-0.162983 0.01482,-0.06914 0.06915,-0.108656 0.05433,-0.03951 0.143228,-0.03951 0.08396,0 0.13335,0.03951 0.04939,0.03951 0.08396,0.143228 l 0.671689,1.896534 h -0.118533 l 0.691444,-1.906412 q 0.03457,-0.0889 0.0889,-0.128411 0.05927,-0.04445 0.143228,-0.04445 0.0889,0 0.148167,0.04445 0.05927,0.03951 0.08396,0.128411 l 0.681567,1.906412 H 87.85531 l 0.681567,-1.906412 q 0.03457,-0.09878 0.0889,-0.13335 0.05433,-0.03951 0.13335,-0.03951 0.0889,0 0.13335,0.04445 0.04445,0.04445 0.04939,0.118534 0.0099,0.06914 -0.01976,0.148166 l -0.735894,1.96074 q -0.03457,0.103716 -0.108656,0.153105 -0.06914,0.04939 -0.162983,0.04939 -0.09384,0 -0.167922,-0.04939 -0.06915,-0.04939 -0.108656,-0.153105 L 86.931735,26.75434 h 0.227189 l -0.706262,1.936045 q -0.03951,0.103716 -0.108655,0.153105 -0.06914,0.04939 -0.167922,0.04939 z"
       id="path7" /></g><g
     style="fill:#cccccc"
     id="g13"
     transform="matrix(0.08916718,0,0,0.08916718,35.992138,9.6146786)"><path
       d="M 0,0 H 24 V 24 H 0 Z"
       fill="none"
       id="path1" /><path
       d="M 7.58,4.08 6.15,2.65 C 3.75,4.48 2.17,7.3 2.03,10.5 h 2 C 4.18,7.85 5.54,5.53 7.58,4.08 Z m 12.39,6.42 h 2 C 21.82,7.3 20.24,4.48 17.85,2.65 l -1.42,1.43 c 2.02,1.45 3.39,3.77 3.54,6.42 z M 18,11 C 18,7.93 16.36,5.36 13.5,4.68 V 4 C 13.5,3.17 12.83,2.5 12,2.5 11.17,2.5 10.5,3.17 10.5,4 V 4.68 C 7.63,5.36 6,7.92 6,11 v 5 l -2,2 v 1 h 16 v -1 l -2,-2 z m -6,11 c 0.14,0 0.27,-0.01 0.4,-0.04 0.65,-0.14 1.18,-0.58 1.44,-1.18 0.1,-0.24 0.15,-0.5 0.15,-0.78 h -4 c 0.01,1.1 0.9,2 2.01,2 z"
       id="path2-0" /></g><path
     d="m 12.985818,15.015938 q -0.07412,0 -0.115301,-0.03843 -0.03843,-0.04118 -0.03843,-0.115301 V 13.23426 q 0,-0.07412 0.03843,-0.112556 0.04118,-0.04118 0.115301,-0.04118 h 0.529838 q 0.477677,0 0.735733,0.24982 0.260801,0.247074 0.260801,0.716516 0,0.233348 -0.06589,0.414536 -0.06589,0.181188 -0.194914,0.304725 -0.126283,0.120792 -0.310217,0.186679 -0.183933,0.06314 -0.425516,0.06314 z M 13.117591,14.7771 h 0.381594 q 0.181187,0 0.31296,-0.04393 0.134519,-0.04667 0.225112,-0.137263 0.0906,-0.09059 0.134519,-0.227858 0.04392,-0.137263 0.04392,-0.321197 0,-0.365121 -0.181188,-0.546309 Q 13.85607,13.31936 13.499185,13.31936 h -0.381594 z m 1.886,0.258055 q -0.06863,0 -0.104319,-0.03569 -0.03569,-0.03843 -0.03569,-0.10432 v -1.098108 q 0,-0.06863 0.03569,-0.104321 0.03569,-0.03569 0.09883,-0.03569 0.06589,0 0.09883,0.03569 0.03569,0.03569 0.03569,0.104321 v 0.200405 h -0.02745 q 0.04392,-0.164717 0.161971,-0.24982 0.118046,-0.0851 0.30198,-0.09883 0.04941,-0.0028 0.07687,0.02471 0.0302,0.02745 0.03294,0.0851 0.0055,0.05765 -0.02471,0.09334 -0.0302,0.03295 -0.09334,0.03844 l -0.05216,0.0055 q -0.178444,0.01647 -0.271783,0.112556 -0.09334,0.09609 -0.09334,0.263547 v 0.623177 q 0,0.06589 -0.03569,0.104319 -0.03295,0.03569 -0.104321,0.03569 z m 1.021239,-0.0028 q -0.06589,0 -0.101574,-0.03844 -0.03569,-0.04118 -0.03569,-0.112556 v -1.070656 q 0,-0.07138 0.03569,-0.109811 0.03569,-0.03843 0.101574,-0.03843 0.06589,0 0.101576,0.03843 0.03843,0.03843 0.03843,0.109811 v 1.070656 q 0,0.07138 -0.03569,0.112556 -0.03569,0.03844 -0.104321,0.03844 z m 0,-1.655399 q -0.08236,0 -0.129027,-0.04118 -0.04393,-0.04118 -0.04393,-0.115301 0,-0.07687 0.04393,-0.115301 0.04667,-0.04118 0.129027,-0.04118 0.08236,0 0.126283,0.04118 0.04667,0.03843 0.04667,0.115301 0,0.07412 -0.04667,0.115301 -0.04392,0.04118 -0.126283,0.04118 z m 0.667101,1.658145 q -0.06589,0 -0.101574,-0.03569 -0.03569,-0.03843 -0.03569,-0.10432 v -1.098109 q 0,-0.06863 0.03569,-0.10432 0.03569,-0.03569 0.09883,-0.03569 0.06589,0 0.09883,0.03569 0.03569,0.03569 0.03569,0.10432 v 0.214144 l -0.0302,-0.04941 q 0.0604,-0.153736 0.189424,-0.230603 0.129028,-0.07961 0.29649,-0.07961 0.159226,0 0.263546,0.0604 0.107065,0.05765 0.159226,0.178442 0.05216,0.118047 0.05216,0.299235 v 0.705535 q 0,0.06589 -0.03569,0.10432 -0.03569,0.03569 -0.101575,0.03569 -0.06863,0 -0.10432,-0.03569 -0.03569,-0.03843 -0.03569,-0.10432 V 14.20608 q 0,-0.172952 -0.06863,-0.252565 -0.06589,-0.07961 -0.20864,-0.07961 -0.167461,0 -0.269036,0.10432 -0.09883,0.104321 -0.09883,0.280018 v 0.636903 q 0,0.140009 -0.14001,0.140009 z m 1.581278,0 q -0.06589,0 -0.101576,-0.03569 -0.03569,-0.03843 -0.03569,-0.10432 v -1.693833 q 0,-0.06863 0.03569,-0.10432 0.03569,-0.03569 0.101576,-0.03569 0.06589,0 0.101575,0.03569 0.03844,0.03569 0.03844,0.10432 v 1.059675 h 0.0055 l 0.513367,-0.510621 q 0.04392,-0.04392 0.07961,-0.06863 0.03569,-0.02471 0.09334,-0.02471 0.05765,0 0.08785,0.0302 0.0302,0.0302 0.0302,0.07412 0,0.04118 -0.04118,0.0851 l -0.543564,0.538072 v -0.129028 l 0.592979,0.590233 q 0.04392,0.04392 0.04118,0.08785 -0.0028,0.04392 -0.03569,0.07412 -0.03295,0.02745 -0.08236,0.02745 -0.06314,0 -0.101575,-0.02471 -0.03569,-0.02471 -0.0851,-0.07412 l -0.549054,-0.532582 h -0.0055 v 0.491403 q 0,0.140009 -0.140009,0.140009 z m 2.432313,0.0055 q -0.140008,0 -0.252565,-0.0549 -0.109811,-0.05491 -0.172952,-0.148244 -0.06314,-0.09334 -0.06314,-0.211387 0,-0.148244 0.07412,-0.233348 0.07687,-0.08785 0.24982,-0.123537 0.175696,-0.03843 0.472186,-0.03843 h 0.129028 v 0.170207 h -0.126283 q -0.197659,0 -0.312961,0.01922 -0.115301,0.01922 -0.164716,0.06589 -0.04667,0.04392 -0.04667,0.123537 0,0.10432 0.07138,0.170207 0.07138,0.06314 0.197659,0.06314 0.101576,0 0.178443,-0.04667 0.07687,-0.04941 0.120792,-0.131773 0.04667,-0.08236 0.04667,-0.189424 v -0.315706 q 0,-0.15648 -0.06589,-0.225112 -0.06589,-0.06863 -0.216875,-0.06863 -0.08785,0 -0.183933,0.02196 -0.09334,0.02196 -0.194915,0.07412 -0.04667,0.02196 -0.07961,0.01373 -0.03294,-0.0082 -0.05216,-0.03569 -0.01922,-0.0302 -0.02196,-0.06314 0,-0.03569 0.01647,-0.06863 0.01922,-0.03294 0.06314,-0.04941 0.120792,-0.05765 0.238838,-0.08236 0.118047,-0.02471 0.222368,-0.02471 0.183932,0 0.301979,0.05765 0.120793,0.05765 0.178443,0.175698 0.05765,0.118046 0.05765,0.304724 v 0.705536 q 0,0.06589 -0.03295,0.10432 -0.03294,0.03569 -0.09608,0.03569 -0.0604,0 -0.09608,-0.03569 -0.03569,-0.03843 -0.03569,-0.10432 v -0.178443 h 0.02471 q -0.02196,0.101575 -0.08236,0.175698 -0.05765,0.07138 -0.145499,0.109811 -0.08785,0.03843 -0.200405,0.03843 z m 2.377406,0.494149 q -0.148244,0 -0.288253,-0.0302 -0.137264,-0.0302 -0.24982,-0.09883 -0.04118,-0.02196 -0.05491,-0.05491 -0.01373,-0.0302 -0.0082,-0.06314 0.0082,-0.03294 0.0302,-0.05765 0.02196,-0.02471 0.05216,-0.03294 0.03294,-0.0082 0.06863,0.01098 0.120792,0.06589 0.227858,0.08785 0.109811,0.02471 0.203149,0.02471 0.192169,0 0.288254,-0.09883 0.09608,-0.09608 0.09608,-0.285507 v -0.280018 h 0.02471 q -0.04118,0.150989 -0.172952,0.238839 -0.131773,0.08785 -0.304724,0.08785 -0.181189,0 -0.315707,-0.08236 -0.134518,-0.0851 -0.20864,-0.233348 -0.07412,-0.15099 -0.07412,-0.351395 0,-0.15099 0.04118,-0.271782 0.04392,-0.120791 0.120792,-0.20864 0.07961,-0.08785 0.189423,-0.134519 0.112557,-0.04941 0.247076,-0.04941 0.175697,0 0.304724,0.08785 0.131773,0.08785 0.170208,0.238838 l -0.02745,0.04667 v -0.227857 q 0,-0.06863 0.03569,-0.104321 0.03843,-0.03569 0.101574,-0.03569 0.06589,0 0.101575,0.03569 0.03569,0.03569 0.03569,0.104321 v 1.106344 q 0,0.312961 -0.161972,0.472187 -0.16197,0.159226 -0.472186,0.159226 z m -0.02196,-0.768676 q 0.120791,0 0.205895,-0.0549 0.0851,-0.05491 0.131773,-0.15648 0.04667,-0.101576 0.04667,-0.23884 0,-0.205895 -0.104321,-0.326686 -0.101575,-0.120793 -0.280017,-0.120793 -0.118047,0 -0.203151,0.05491 -0.0851,0.0549 -0.134518,0.156481 -0.04667,0.09883 -0.04667,0.236092 0,0.208641 0.10432,0.329433 0.10432,0.120792 0.280018,0.120792 z m 1.476955,0.274527 q -0.21413,0 -0.323941,-0.123537 -0.107068,-0.126268 -0.107068,-0.362361 v -1.35342 q 0,-0.06863 0.03569,-0.10432 0.03569,-0.03569 0.101574,-0.03569 0.06589,0 0.101576,0.03569 0.03843,0.03569 0.03843,0.10432 v 1.336948 q 0,0.137263 0.05491,0.205895 0.05765,0.06589 0.164717,0.06589 0.02471,0 0.04392,0 0.01922,-0.0028 0.03843,-0.0055 0.03294,-0.0028 0.04667,0.01922 0.01373,0.01922 0.01373,0.08236 0,0.05765 -0.02471,0.09059 -0.02471,0.0302 -0.07961,0.03843 -0.02471,0.0028 -0.05216,0.0028 -0.02745,0.0028 -0.05216,0.0028 z m 0.837308,0 q -0.140009,0 -0.252565,-0.0549 -0.109811,-0.05491 -0.172952,-0.148244 -0.06314,-0.09334 -0.06314,-0.211387 0,-0.148244 0.07412,-0.233348 0.07687,-0.08785 0.24982,-0.123537 0.175697,-0.03843 0.472186,-0.03843 h 0.129028 v 0.170207 h -0.126282 q -0.19766,0 -0.312962,0.01922 -0.115301,0.01922 -0.164716,0.06589 -0.04667,0.04392 -0.04667,0.123537 0,0.10432 0.07138,0.170207 0.07138,0.06314 0.197659,0.06314 0.101575,0 0.178443,-0.04667 0.07687,-0.04941 0.120791,-0.131773 0.04667,-0.08236 0.04667,-0.189424 v -0.315706 q 0,-0.15648 -0.06589,-0.225112 -0.06589,-0.06863 -0.216876,-0.06863 -0.08785,0 -0.183934,0.02196 -0.09334,0.02196 -0.194914,0.07412 -0.04667,0.02196 -0.07961,0.01373 -0.03294,-0.0082 -0.05216,-0.03569 -0.01922,-0.0302 -0.02196,-0.06314 0,-0.03569 0.01647,-0.06863 0.01922,-0.03294 0.06314,-0.04941 0.120792,-0.05765 0.238838,-0.08236 0.118047,-0.02471 0.222368,-0.02471 0.183933,0 0.301979,0.05765 0.120792,0.05765 0.178443,0.175698 0.05765,0.118046 0.05765,0.304724 v 0.705536 q 0,0.06589 -0.03295,0.10432 -0.03294,0.03569 -0.09608,0.03569 -0.0604,0 -0.09609,-0.03569 -0.03569,-0.03843 -0.03569,-0.10432 v -0.178443 h 0.02471 q -0.02196,0.101575 -0.08236,0.175698 -0.05765,0.07138 -0.145499,0.109811 -0.08785,0.03843 -0.200404,0.03843 z m 1.515391,0 q -0.12079,0 -0.24982,-0.02745 -0.12628,-0.02745 -0.233347,-0.09334 -0.03569,-0.02471 -0.04941,-0.05491 -0.01373,-0.0302 -0.01098,-0.06039 0.0055,-0.03294 0.02471,-0.05491 0.02196,-0.02471 0.05216,-0.0302 0.03295,-0.0055 0.06863,0.01373 0.107066,0.0604 0.205896,0.0851 0.09883,0.02196 0.194913,0.02196 0.1455,0 0.219623,-0.05216 0.07412,-0.05216 0.07412,-0.140009 0,-0.07138 -0.04942,-0.109811 -0.04941,-0.04118 -0.148244,-0.06314 l -0.260802,-0.05216 q -0.170207,-0.03569 -0.258056,-0.126281 -0.08785,-0.09059 -0.08785,-0.230604 0,-0.126281 0.06863,-0.219621 0.06863,-0.09334 0.19217,-0.142754 0.123539,-0.05216 0.285509,-0.05216 0.120793,0 0.227859,0.0302 0.107064,0.0302 0.197657,0.09059 0.03569,0.01922 0.04667,0.05216 0.01098,0.0302 0.0028,0.0604 -0.0055,0.0302 -0.02745,0.05491 -0.02196,0.02196 -0.05491,0.02745 -0.0302,0.0028 -0.06863,-0.01647 -0.08236,-0.05216 -0.164717,-0.07412 -0.07961,-0.02196 -0.159226,-0.02196 -0.145499,0 -0.219622,0.05491 -0.07138,0.05216 -0.07138,0.142754 0,0.06863 0.04392,0.112555 0.04393,0.04392 0.137264,0.06314 l 0.260802,0.05216 q 0.178443,0.03569 0.269036,0.120791 0.09334,0.0851 0.09334,0.230603 0,0.189424 -0.15099,0.299234 -0.15099,0.109811 -0.400809,0.109811 z m 1.328711,0 q -0.120793,0 -0.24982,-0.02745 -0.126283,-0.02745 -0.233349,-0.09334 -0.03569,-0.02471 -0.04941,-0.05491 -0.01373,-0.0302 -0.01098,-0.06039 0.0055,-0.03294 0.02471,-0.05491 0.02196,-0.02471 0.05216,-0.0302 0.03295,-0.0055 0.06863,0.01373 0.107064,0.0604 0.205894,0.0851 0.09883,0.02196 0.194916,0.02196 0.145499,0 0.21962,-0.05216 0.07412,-0.05216 0.07412,-0.140009 0,-0.07138 -0.04941,-0.109811 -0.04942,-0.04118 -0.148246,-0.06314 l -0.2608,-0.05216 q -0.170206,-0.03569 -0.258056,-0.126281 -0.08785,-0.09059 -0.08785,-0.230604 0,-0.126281 0.06863,-0.219621 0.06863,-0.09334 0.192169,-0.142754 0.123537,-0.05216 0.285507,-0.05216 0.120792,0 0.227859,0.0302 0.107063,0.0302 0.197659,0.09059 0.03569,0.01922 0.04667,0.05216 0.01098,0.0302 0.0028,0.0604 -0.0055,0.0302 -0.02745,0.05491 -0.02196,0.02196 -0.05491,0.02745 -0.0302,0.0028 -0.06863,-0.01647 -0.08236,-0.05216 -0.164716,-0.07412 -0.07961,-0.02196 -0.159224,-0.02196 -0.145499,0 -0.219622,0.05491 -0.07138,0.05216 -0.07138,0.142754 0,0.06863 0.04392,0.112555 0.04393,0.04392 0.137264,0.06314 l 0.260802,0.05216 q 0.178443,0.03569 0.269036,0.120791 0.09334,0.0851 0.09334,0.230603 0,0.189424 -0.15099,0.299234 -0.15099,0.109811 -0.400809,0.109811 z m 2.166017,0 q -0.20315,0 -0.351396,-0.0851 -0.1455,-0.0851 -0.227857,-0.241584 -0.08236,-0.15648 -0.08236,-0.367865 0,-0.161972 0.04667,-0.288254 0.04667,-0.126282 0.131773,-0.216877 0.08785,-0.09334 0.20864,-0.140009 0.123539,-0.04941 0.274529,-0.04941 0.200403,0 0.345903,0.0851 0.148246,0.0851 0.230603,0.241584 0.08236,0.153735 0.08236,0.367867 0,0.159226 -0.04667,0.288253 -0.04667,0.129028 -0.134519,0.219622 -0.0851,0.09059 -0.20864,0.140009 -0.12079,0.04667 -0.269036,0.04667 z m 0,-0.214131 q 0.112556,0 0.197659,-0.0549 0.0851,-0.05491 0.131773,-0.161972 0.04941,-0.107065 0.04941,-0.263545 0,-0.236094 -0.10432,-0.356885 -0.10432,-0.120793 -0.274526,-0.120793 -0.115303,0 -0.200406,0.05491 -0.0851,0.05216 -0.134517,0.159225 -0.04667,0.107065 -0.04667,0.263547 0,0.233348 0.10432,0.356885 0.10432,0.123537 0.277273,0.123537 z m 1.174977,0.208641 q -0.06588,0 -0.10432,-0.03569 -0.03569,-0.03843 -0.03569,-0.10432 v -1.00477 h -0.153736 q -0.05216,0 -0.08236,-0.02745 -0.0302,-0.0302 -0.0302,-0.07961 0,-0.05216 0.0302,-0.07961 0.0302,-0.02745 0.08236,-0.02745 h 0.233349 l -0.07961,0.07412 v -0.09883 q 0,-0.271782 0.13452,-0.409046 0.134517,-0.140008 0.392573,-0.164716 l 0.0851,-0.0055 q 0.04667,-0.0055 0.07412,0.01373 0.02745,0.01922 0.03569,0.04941 0.0082,0.0302 0,0.06314 -0.0055,0.0302 -0.02745,0.0549 -0.02196,0.02471 -0.05491,0.02745 l -0.05216,0.0028 q -0.16197,0.01373 -0.236093,0.09334 -0.07412,0.07687 -0.07412,0.236094 v 0.107065 l -0.03844,-0.04392 h 0.304726 q 0.05765,0 0.0851,0.02745 0.0302,0.02745 0.0302,0.07961 0,0.04941 -0.0302,0.07961 -0.02745,0.02745 -0.0851,0.02745 h -0.26629 v 1.004771 q 0,0.140008 -0.137263,0.140008 z m 1.9464,0 q -0.05765,0 -0.101577,-0.02745 -0.04118,-0.0302 -0.06588,-0.09334 l -0.403556,-1.06791 q -0.02196,-0.05491 -0.01373,-0.09609 0.0082,-0.04392 0.04118,-0.06863 0.03569,-0.02471 0.09059,-0.02471 0.04941,0 0.07961,0.02471 0.03294,0.02196 0.0549,0.08785 l 0.359632,1.013005 h -0.06589 l 0.373356,-1.023986 q 0.01921,-0.05216 0.05216,-0.07687 0.03295,-0.02471 0.0851,-0.02471 0.05216,0 0.08511,0.02471 0.03569,0.02471 0.05216,0.07687 l 0.365122,1.023986 h -0.0604 l 0.365122,-1.018495 q 0.02196,-0.06314 0.0549,-0.0851 0.03569,-0.02196 0.07961,-0.02196 0.05491,0 0.08236,0.02745 0.0302,0.02745 0.03294,0.07138 0.0055,0.04118 -0.01373,0.09059 l -0.403553,1.06791 q -0.02471,0.0604 -0.06863,0.09059 -0.04118,0.0302 -0.09608,0.0302 -0.05765,0 -0.101577,-0.0302 -0.04118,-0.0302 -0.06589,-0.09059 l -0.384339,-1.040458 h 0.137266 l -0.381596,1.040458 q -0.02196,0.0604 -0.06589,0.09059 -0.04118,0.0302 -0.09883,0.0302 z m 2.234652,0.0055 q -0.14001,0 -0.252566,-0.0549 -0.10981,-0.05491 -0.17295,-0.148244 -0.06314,-0.09334 -0.06314,-0.211387 0,-0.148244 0.07412,-0.233348 0.07687,-0.08785 0.24982,-0.123537 0.175696,-0.03843 0.472186,-0.03843 h 0.129029 v 0.170206 h -0.126283 q -0.19766,0 -0.312962,0.01922 -0.115301,0.01922 -0.164717,0.06589 -0.04667,0.04392 -0.04667,0.123537 0,0.10432 0.07138,0.170207 0.07138,0.06314 0.197657,0.06314 0.101576,0 0.178445,-0.04667 0.07687,-0.04941 0.12079,-0.131774 0.04667,-0.08236 0.04667,-0.189423 v -0.315707 q 0,-0.156479 -0.06589,-0.225112 -0.06589,-0.06863 -0.216877,-0.06863 -0.08785,0 -0.183933,0.02196 -0.09334,0.02196 -0.194916,0.07412 -0.04667,0.02196 -0.07961,0.01373 -0.03295,-0.0082 -0.05216,-0.03569 -0.01921,-0.0302 -0.02196,-0.06314 0,-0.03569 0.01648,-0.06863 0.01921,-0.03294 0.06314,-0.04941 0.120793,-0.05765 0.23884,-0.08236 0.118046,-0.02471 0.222366,-0.02471 0.183933,0 0.30198,0.05765 0.120793,0.05765 0.178443,0.175698 0.05765,0.118047 0.05765,0.304725 v 0.705536 q 0,0.06589 -0.03294,0.104319 -0.03295,0.03569 -0.09608,0.03569 -0.0604,0 -0.09609,-0.03569 -0.03569,-0.03843 -0.03569,-0.104319 v -0.178443 h 0.02471 q -0.02196,0.101575 -0.08236,0.175697 -0.05765,0.07138 -0.145499,0.109811 -0.08785,0.03843 -0.200404,0.03843 z m 1.616967,0 q -0.164717,0 -0.277273,-0.05765 -0.112557,-0.05765 -0.16746,-0.170206 -0.05491,-0.112557 -0.05491,-0.274528 V 13.890352 H 36.69399 q -0.05491,0 -0.0851,-0.02745 -0.0302,-0.0302 -0.0302,-0.07961 0,-0.05216 0.0302,-0.07961 0.0302,-0.02745 0.0851,-0.02745 h 0.164716 v -0.282763 q 0,-0.06863 0.03569,-0.10432 0.03844,-0.03569 0.104323,-0.03569 0.06589,0 0.101573,0.03569 0.03569,0.03569 0.03569,0.10432 v 0.282763 h 0.321196 q 0.05491,0 0.0851,0.02745 0.0302,0.02745 0.0302,0.07961 0,0.04941 -0.0302,0.07961 -0.0302,0.02745 -0.0851,0.02745 h -0.321196 v 0.625922 q 0,0.1455 0.0604,0.219622 0.06314,0.07412 0.203149,0.07412 0.04941,0 0.0851,-0.0082 0.03843,-0.01098 0.06314,-0.01373 0.0302,0 0.04942,0.02196 0.01921,0.01922 0.01921,0.07687 0,0.04118 -0.01648,0.07687 -0.01373,0.03569 -0.05216,0.04667 -0.03295,0.01098 -0.09059,0.01922 -0.05491,0.01098 -0.09883,0.01098 z m 1.04595,0 q -0.21962,0 -0.378846,-0.08236 -0.15648,-0.0851 -0.244329,-0.238838 -0.0851,-0.156481 -0.0851,-0.370612 0,-0.208641 0.0851,-0.365121 0.0851,-0.15648 0.233346,-0.244329 0.148246,-0.08785 0.337669,-0.08785 0.14001,0 0.24982,0.04667 0.10981,0.04392 0.186679,0.131773 0.07961,0.0851 0.118047,0.208641 0.04118,0.123537 0.04118,0.277272 0,0.04667 -0.02747,0.07138 -0.02745,0.02196 -0.08236,0.02196 H 37.915621 V 14.23899 h 0.845544 l -0.04667,0.03843 q 0,-0.137264 -0.04118,-0.233348 -0.03843,-0.09608 -0.118047,-0.1455 -0.07687,-0.05216 -0.192169,-0.05216 -0.129027,0 -0.21962,0.06039 -0.08785,0.0604 -0.13452,0.167462 -0.04667,0.107066 -0.04667,0.24982 v 0.01647 q 0,0.241584 0.112557,0.365121 0.115303,0.120793 0.332179,0.120793 0.08236,0 0.172953,-0.02196 0.09334,-0.02196 0.175696,-0.07412 0.04667,-0.02745 0.08236,-0.02471 0.03844,0.0028 0.0604,0.02471 0.02471,0.02197 0.0302,0.05491 0.0055,0.03294 -0.01098,0.06863 -0.01648,0.03294 -0.05765,0.06039 -0.09334,0.06314 -0.216876,0.09609 -0.123536,0.0302 -0.238839,0.0302 z m 0.985555,-0.0055 q -0.06863,0 -0.10432,-0.03569 -0.03568,-0.03843 -0.03568,-0.10432 V 13.79702 q 0,-0.06863 0.03568,-0.104321 0.03568,-0.03569 0.09883,-0.03569 0.06588,0 0.09883,0.03569 0.03568,0.03569 0.03568,0.104321 v 0.200404 h -0.02747 q 0.04392,-0.164717 0.161972,-0.249819 0.118047,-0.0851 0.301977,-0.09883 0.04942,-0.0028 0.07687,0.02471 0.03019,0.02745 0.03296,0.0851 0.0055,0.05765 -0.02471,0.09334 -0.03019,0.03295 -0.09334,0.03844 l -0.05216,0.0055 q -0.178441,0.01647 -0.27178,0.112556 -0.09334,0.09609 -0.09334,0.263547 v 0.623177 q 0,0.06589 -0.03568,0.104319 -0.03295,0.03569 -0.104317,0.03569 z"
     id="text14"
     style="font-weight:600;font-size:26.6667px;line-height:48.594px;font-family:Nunito;-inkscape-font-specification:'Nunito Semi-Bold';letter-spacing:0px;white-space:pre;fill:#b3b3b3;stroke:#b3b3b3;stroke-width:0"
     aria-label="Drink a glass of water" /><path
     style="font-weight:500;font-size:4.93889px;line-height:9.00002px;font-family:Nunito;-inkscape-font-specification:'Nunito Medium';letter-spacing:0px;fill:#626463;stroke-width:0.823582"
     d="m 8.1710243,2.9227009 q -0.046121,0 -0.071102,-0.024982 -0.024985,-0.024982 -0.024985,-0.071103 V 1.6639951 q 0,-0.046121 0.024985,-0.071102 0.024985,-0.024982 0.071102,-0.024982 h 0.3708855 q 0.3324521,0 0.5111692,0.1748736 0.180639,0.1729519 0.180639,0.5015606 0,0.1633435 -0.046121,0.290175 -0.04612,0.1268307 -0.134518,0.2133069 -0.088398,0.084554 -0.2171504,0.1306748 -0.1268315,0.044199 -0.2940188,0.044199 z m 0.082633,-0.1518134 h 0.2767229 q 0.1306751,0 0.2267593,-0.032669 0.096084,-0.032669 0.1595001,-0.098006 0.065337,-0.065337 0.098006,-0.1633435 0.032668,-0.099928 0.032668,-0.2325243 0,-0.2632713 -0.1306746,-0.3939461 Q 8.7878861,1.7197241 8.5303798,1.7197241 H 8.2536569 Z m 1.531585,0.1691087 q -0.096085,0 -0.1748737,-0.038434 Q 9.5335006,2.8631282 9.4893022,2.797791 9.4470252,2.732453 9.4470252,2.6517426 q 0,-0.1037711 0.051886,-0.1633434 0.051886,-0.059572 0.1748737,-0.084554 0.1229881,-0.026903 0.3305301,-0.026903 h 0.09032 v 0.1114579 h -0.08648 q -0.1479701,0 -0.234446,0.013452 -0.084555,0.013452 -0.119145,0.048042 -0.03459,0.032669 -0.03459,0.092241 0,0.074946 0.051886,0.1229881 0.053807,0.048042 0.1460485,0.048042 0.073024,0 0.1287531,-0.03459 0.055729,-0.036512 0.088398,-0.096084 0.03267,-0.061494 0.03267,-0.1402833 V 2.3212125 q 0,-0.1133796 -0.04612,-0.1633435 -0.04612,-0.051886 -0.1556571,-0.051886 -0.063416,0 -0.1306746,0.017295 -0.067259,0.017295 -0.1402834,0.053807 -0.028824,0.013452 -0.049964,0.00961 -0.02114,-0.00577 -0.03459,-0.02306 -0.011528,-0.019217 -0.013451,-0.040355 0,-0.02306 0.00961,-0.044199 0.011528,-0.021139 0.038434,-0.030747 0.084554,-0.042277 0.1671867,-0.059572 0.084554,-0.019217 0.1575785,-0.019217 0.1249097,0 0.2056209,0.040355 0.08071,0.038434 0.121066,0.1210664 0.04036,0.080711 0.04036,0.2075423 v 0.5073258 q 0,0.044199 -0.02114,0.067259 -0.02114,0.023061 -0.06149,0.023061 -0.03843,0 -0.0615,-0.023061 -0.02114,-0.023061 -0.02114,-0.067259 v -0.136441 h 0.0173 q -0.01537,0.071103 -0.05765,0.1229882 -0.042277,0.051886 -0.1056929,0.080711 -0.061494,0.026903 -0.1402832,0.026903 z m 0.9320217,0.3420605 q -0.03075,0 -0.05189,-0.017296 -0.01922,-0.015372 -0.02306,-0.044199 -0.0019,-0.026904 0.01153,-0.057651 l 0.130678,-0.2959399 v 0.073024 L 10.421324,2.0944533 q -0.01345,-0.032669 -0.0096,-0.059572 0.0039,-0.026904 0.02498,-0.044199 0.02306,-0.017295 0.06149,-0.017295 0.03267,0 0.05189,0.015373 0.01922,0.015373 0.03651,0.053807 L 10.8883,2.7862606 h -0.05381 l 0.30747,-0.7436933 q 0.01537,-0.038434 0.03651,-0.053807 0.02114,-0.015373 0.05765,-0.015373 0.03267,0 0.04996,0.017295 0.01922,0.017295 0.02306,0.044199 0.0039,0.026903 -0.01153,0.057651 l -0.484265,1.1203442 q -0.01922,0.040356 -0.04035,0.053807 -0.01922,0.015375 -0.05573,0.015375 z m 1.222194,-0.3459039 q -0.0442,0 -0.06726,-0.023061 -0.02306,-0.024982 -0.02306,-0.069181 V 1.7197241 h -0.420849 q -0.03651,0 -0.05765,-0.019217 -0.02114,-0.021139 -0.02114,-0.057651 0,-0.036512 0.02114,-0.055729 0.02114,-0.019217 0.05765,-0.019217 h 1.020416 q 0.03843,0 0.05765,0.019217 0.02114,0.019217 0.02114,0.055729 0,0.036512 -0.02114,0.057651 -0.01922,0.019217 -0.05765,0.019217 h -0.42085 v 1.1241876 q 0,0.044199 -0.02306,0.069181 -0.02114,0.023061 -0.06534,0.023061 z m 1.007402,0.00384 q -0.151813,0 -0.261349,-0.057651 -0.107615,-0.059573 -0.167187,-0.1671878 -0.05957,-0.1095362 -0.05957,-0.2575062 0,-0.1460483 0.05765,-0.2555845 0.05957,-0.1095362 0.161422,-0.1710302 0.103771,-0.061494 0.236367,-0.061494 0.09416,0 0.169109,0.032669 0.07687,0.030747 0.130675,0.090319 0.05381,0.059572 0.08071,0.1460483 0.02882,0.084554 0.02882,0.1921689 0,0.030747 -0.01922,0.048042 -0.0173,0.015373 -0.05188,0.015373 H 12.595191 V 2.3827066 h 0.613019 l -0.03267,0.026903 q 0,-0.099928 -0.03075,-0.1691085 -0.02882,-0.071103 -0.08648,-0.1076146 -0.05573,-0.036512 -0.140283,-0.036512 -0.09224,0 -0.157578,0.044199 -0.06534,0.042277 -0.09993,0.1210664 -0.03459,0.076868 -0.03459,0.178717 v 0.01153 q 0,0.1729519 0.08263,0.2613495 0.08263,0.088398 0.238289,0.088398 0.06149,0 0.12491,-0.015372 0.06534,-0.015372 0.12491,-0.055729 0.02882,-0.017296 0.05189,-0.015375 0.02498,0 0.04035,0.015375 0.01537,0.013451 0.01922,0.03459 0.0039,0.019217 -0.0058,0.042277 -0.0096,0.023061 -0.03651,0.040355 -0.06342,0.044199 -0.151814,0.069181 -0.08648,0.023061 -0.167187,0.023061 z m 0.684122,-0.00384 q -0.04035,0 -0.06342,-0.023061 -0.02306,-0.023061 -0.02306,-0.067259 V 2.0617846 q 0,-0.044199 0.02306,-0.065337 0.02306,-0.02306 0.06342,-0.02306 0.04035,0 0.06149,0.02306 0.02306,0.021139 0.02306,0.065337 v 0.1633435 l -0.02114,-0.03459 q 0.03651,-0.1056928 0.117223,-0.1633435 0.08263,-0.057651 0.196012,-0.057651 0.119144,0 0.192169,0.057651 0.07302,0.055729 0.09801,0.1710302 h -0.0269 q 0.03459,-0.1056928 0.122988,-0.1671868 0.09032,-0.061494 0.209464,-0.061494 0.105693,0 0.172952,0.042277 0.06918,0.040355 0.103771,0.122988 0.03459,0.080711 0.03459,0.2075424 v 0.5034823 q 0,0.044199 -0.02306,0.067259 -0.02306,0.023061 -0.06342,0.023061 -0.04228,0 -0.06534,-0.023061 -0.02306,-0.023061 -0.02306,-0.067259 V 2.3500378 q 0,-0.122988 -0.04228,-0.1806386 -0.04228,-0.057651 -0.142205,-0.057651 -0.109536,0 -0.174873,0.076868 -0.06342,0.074946 -0.06342,0.2075423 v 0.4496751 q 0,0.044199 -0.02306,0.067259 -0.02114,0.023061 -0.06342,0.023061 -0.04228,0 -0.06534,-0.023061 -0.02306,-0.023061 -0.02306,-0.067259 V 2.3500378 q 0,-0.122988 -0.04228,-0.1806386 -0.04228,-0.057651 -0.142205,-0.057651 -0.109537,0 -0.174874,0.076868 -0.06342,0.074946 -0.06342,0.2075423 v 0.4496751 q 0,0.090319 -0.0884,0.090319 z m 1.65073,0.3459039 q -0.04035,0 -0.06342,-0.023061 -0.02306,-0.023061 -0.02306,-0.065337 V 2.0617846 q 0,-0.044199 0.02306,-0.065337 0.02306,-0.02306 0.06342,-0.02306 0.04228,0 0.06342,0.02306 0.02306,0.021139 0.02306,0.065337 v 0.1748736 l -0.02114,-0.03459 q 0.03075,-0.1056928 0.121066,-0.1691085 0.09032,-0.063416 0.217151,-0.063416 0.12491,0 0.217151,0.059572 0.09224,0.057651 0.144127,0.1671869 0.05188,0.1076145 0.05188,0.2575062 0,0.14797 -0.05188,0.2594279 -0.04996,0.1095362 -0.144127,0.1691084 -0.09224,0.057651 -0.217151,0.057651 -0.124909,0 -0.215229,-0.063416 -0.09032,-0.063416 -0.121066,-0.1671868 h 0.02114 v 0.4842653 q 0,0.042277 -0.02306,0.065338 -0.02306,0.023061 -0.06534,0.023061 z m 0.363199,-0.4804223 q 0.08263,0 0.144127,-0.040355 0.06342,-0.040355 0.09801,-0.117223 0.03459,-0.076867 0.03459,-0.1902471 0,-0.1691086 -0.07495,-0.2575062 -0.07495,-0.088398 -0.201778,-0.088398 -0.08455,0 -0.147969,0.040355 -0.0615,0.038434 -0.09609,0.1153013 -0.03267,0.076868 -0.03267,0.1902471 0,0.1691086 0.07495,0.2594279 0.07495,0.088398 0.201777,0.088398 z m 1.076146,0.1383618 q -0.138362,0 -0.240211,-0.059572 -0.10185,-0.059572 -0.157579,-0.1691085 -0.05573,-0.1095362 -0.05573,-0.2575062 0,-0.1114579 0.03075,-0.1998556 0.03267,-0.090319 0.09224,-0.153735 0.05957,-0.063416 0.142205,-0.096085 0.08455,-0.03459 0.188325,-0.03459 0.138362,0 0.240212,0.059572 0.101849,0.059572 0.157578,0.1691085 0.05573,0.1076146 0.05573,0.2555846 0,0.1114579 -0.03267,0.2017773 -0.03075,0.090319 -0.09032,0.1537351 -0.05957,0.063416 -0.144126,0.098006 -0.08263,0.032669 -0.186404,0.032669 z m 0,-0.1383618 q 0.08455,0 0.146048,-0.040355 0.06342,-0.040355 0.09608,-0.117223 0.03459,-0.076867 0.03459,-0.1902471 0,-0.1691086 -0.07495,-0.2575062 -0.07495,-0.088398 -0.201777,-0.088398 -0.08263,0 -0.146048,0.040355 -0.0615,0.038434 -0.09609,0.1153013 -0.03459,0.076868 -0.03459,0.1902471 0,0.1691086 0.07495,0.2594279 0.07687,0.088398 0.201777,0.088398 z"
     id="text4-3"
     aria-label="DayTempo " /><circle
     style="fill:#626463;fill-opacity:1;stroke:none;stroke-width:1.71201e-08;stroke-dasharray:none;stroke-opacity:1"
     id="path17"
     cx="5.2371664"
     cy="2.4249828"
     r="0.77818626" /><g
     id="g18"
     transform="matrix(0.38909313,0,0,0.38909313,-10.60672,-44.720833)"><g
       style="fill:#cccccc;stroke:none;stroke-opacity:1"
       id="g16"
       transform="matrix(0.26458333,0,0,0.26458333,179.79373,117.99347)"><path
         d="M 0,0 H 24 V 24 H 0 Z"
         fill="none"
         id="path1-5"
         style="stroke:none;stroke-opacity:1" /><path
         d="M 15.67,4 H 14 V 2 H 10 V 4 H 8.33 C 7.6,4 7,4.6 7,5.33 V 20.66 C 7,21.4 7.6,22 8.33,22 h 7.33 C 16.4,22 17,21.4 17,20.67 V 5.33 C 17,4.6 16.4,4 15.67,4 Z"
         id="path2-5"
         style="fill:#626463;fill-opacity:1;stroke:none;stroke-opacity:1" /></g><g
       style="fill:#cccccc"
       id="g17"
       transform="matrix(0.26458333,0,0,0.26458333,171.77605,117.99347)"><path
         d="M 0,0 H 24 V 24 H 0 Z"
         fill="none"
         id="path1-4" /><path
         d="M 2,22 H 22 V 2 Z"
         id="path2-7"
         style="fill:#626463;fill-opacity:1" /></g></g></svg>
