<?xml version="1.0" encoding="UTF-8" standalone="no"?>
<!-- Created with Inkscape (http://www.inkscape.org/) -->

<svg
   width="170.00002mm"
   height="62.00301mm"
   viewBox="0 0 170.00002 62.00301"
   version="1.1"
   id="svg1"
   xml:space="preserve"
   xmlns:xlink="http://www.w3.org/1999/xlink"
   xmlns="http://www.w3.org/2000/svg"
   xmlns:svg="http://www.w3.org/2000/svg"><defs
     id="defs1"><linearGradient
       id="linearGradient18"><stop
         style="stop-color:#e9eeed;stop-opacity:1;"
         offset="0"
         id="stop18" /><stop
         style="stop-color:#f2f2f2;stop-opacity:0;"
         offset="1"
         id="stop19" /></linearGradient><rect
       x="227.27274"
       y="565.65656"
       width="380.80807"
       height="48.484848"
       id="rect14" /><linearGradient
       xlink:href="#linearGradient18"
       id="linearGradient19"
       x1="112.51472"
       y1="160.88785"
       x2="112.53997"
       y2="176.65598"
       gradientUnits="userSpaceOnUse"
       gradientTransform="translate(-27.260103,-116.52356)" /></defs><rect
     style="fill:url(#linearGradient19);fill-opacity:1;stroke:#b3b3b3;stroke-width:0;stroke-dasharray:none;stroke-opacity:1"
     id="rect15"
     width="170"
     height="62.002998"
     x="-1.2437904e-06"
     y="-8.7146856e-07"
     rx="5"
     ry="5" /><rect
     style="fill:#2a2a2a;fill-opacity:1;stroke-width:0.564942"
     id="rect1"
     width="150"
     height="35"
     x="9.7308712"
     y="14.476417"
     rx="10.911417"
     ry="10.445791" /><g
     id="g4"
     transform="matrix(0.91666667,0,0,0.91666667,-11.316496,-104.64856)"
     style="fill:#3c3c3c;fill-opacity:1"><path
       style="fill:#3c3c3c;fill-opacity:1;stroke:none;stroke-width:0.130021;stroke-opacity:1"
       id="path2"
       d="m 177.92328,148.5 a 6,6 0 0 1 -5.8701,5.99859 6,6 0 0 1 -6.12428,-5.73885 6,6 0 0 1 5.60492,-6.24709 6,6 0 0 1 6.36697,5.46835" /><path
       style="fill:#3c3c3c;fill-opacity:1;stroke:#ffffff;stroke-width:0.482231;stroke-opacity:1"
       d="m 175.43847,146.65945 -3.51519,3.51092 -3.51519,-3.51092"
       id="path3" /></g><ellipse
     style="fill:none;fill-opacity:1;stroke:#ffffff;stroke-width:1.93647;stroke-dasharray:none;stroke-opacity:1"
     id="path4"
     cx="22.046169"
     cy="31.418098"
     rx="5.0317664"
     ry="5.0317655" /><g
     id="text4"
     style="font-weight:500;font-size:8.46667px;line-height:9.00002px;font-family:Roboto;-inkscape-font-specification:'Roboto Medium';letter-spacing:0px;fill:#e6e6e6;stroke-width:2.11667"
     aria-label="DayTempo • now "><path
       style="font-weight:600;font-family:Nunito;-inkscape-font-specification:'Nunito Semi-Bold';fill:#cccccc"
       d="m 33.453602,28.858284 q -0.2286,0 -0.3556,-0.118533 -0.118533,-0.127 -0.118533,-0.355601 v -5.020735 q 0,-0.2286 0.118533,-0.347133 0.127,-0.127 0.3556,-0.127 h 1.634068 q 1.4732,0 2.269067,0.770467 0.804334,0.762 0.804334,2.2098 0,0.719667 -0.2032,1.278468 -0.2032,0.5588 -0.601134,0.9398 -0.389466,0.372534 -0.956733,0.575734 -0.567267,0.194733 -1.312334,0.194733 z m 0.406401,-0.7366 h 1.176867 q 0.5588,0 0.9652,-0.135467 0.414867,-0.143933 0.694267,-0.423334 0.2794,-0.2794 0.414867,-0.702733 0.135467,-0.423334 0.135467,-0.990601 0,-1.126067 -0.558801,-1.684867 -0.550333,-0.5588 -1.651,-0.5588 h -1.176867 z m 6.705598,0.8128 q -0.4318,0 -0.778934,-0.169333 -0.338667,-0.169334 -0.5334,-0.457201 -0.194733,-0.287866 -0.194733,-0.651933 0,-0.4572 0.2286,-0.719667 0.237066,-0.270934 0.770467,-0.381 0.541867,-0.118534 1.456267,-0.118534 h 0.397933 v 0.524934 h -0.389466 q -0.609601,0 -0.965201,0.05927 -0.3556,0.05927 -0.508,0.2032 -0.143933,0.135466 -0.143933,0.381 0,0.321733 0.220133,0.524933 0.220133,0.194734 0.6096,0.194734 0.313267,0 0.550334,-0.143934 0.237067,-0.1524 0.372533,-0.4064 0.143934,-0.254 0.143934,-0.5842 v -0.973667 q 0,-0.4826 -0.2032,-0.694267 -0.2032,-0.211667 -0.668867,-0.211667 -0.270934,0 -0.567267,0.06773 -0.287867,0.06773 -0.601134,0.2286 -0.143933,0.06773 -0.245533,0.04233 -0.1016,-0.0254 -0.160867,-0.110067 -0.05927,-0.09313 -0.06773,-0.194733 0,-0.110067 0.0508,-0.211667 0.05927,-0.1016 0.194733,-0.1524 0.372534,-0.1778 0.7366,-0.254 0.364067,-0.0762 0.685801,-0.0762 0.567267,0 0.931333,0.1778 0.372534,0.1778 0.550334,0.541867 0.1778,0.364067 0.1778,0.9398 v 2.175935 q 0,0.2032 -0.1016,0.321733 -0.1016,0.110067 -0.296334,0.110067 -0.186266,0 -0.296333,-0.110067 -0.110067,-0.118533 -0.110067,-0.321733 v -0.550334 h 0.0762 q -0.06773,0.313267 -0.254,0.541867 -0.1778,0.220133 -0.448733,0.338667 -0.270934,0.118533 -0.618067,0.118533 z m 4.157147,1.507067 q -0.1524,0 -0.254,-0.08467 -0.09313,-0.0762 -0.110067,-0.211667 -0.0085,-0.127 0.0508,-0.2794 l 0.575734,-1.295401 v 0.364067 l -1.583268,-3.683001 q -0.05927,-0.1524 -0.04233,-0.287867 0.01693,-0.135467 0.127,-0.211667 0.110067,-0.08467 0.296334,-0.08467 0.160866,0 0.254,0.0762 0.09313,0.0762 0.169333,0.262467 l 1.278467,3.158068 h -0.237067 l 1.295401,-3.158068 q 0.0762,-0.194733 0.1778,-0.262467 0.1016,-0.0762 0.2794,-0.0762 0.1524,0 0.237067,0.08467 0.09313,0.0762 0.110067,0.211667 0.0254,0.127 -0.04233,0.2794 l -2.116667,4.868335 q -0.08467,0.194734 -0.194734,0.262467 -0.1016,0.06773 -0.270933,0.06773 z m 5.418673,-1.524 q -0.211667,0 -0.3302,-0.118534 -0.110067,-0.118533 -0.110067,-0.3302 V 23.625882 H 47.90622 q -0.1778,0 -0.2794,-0.09313 -0.1016,-0.1016 -0.1016,-0.279401 0,-0.1778 0.1016,-0.270933 0.1016,-0.09313 0.2794,-0.09313 h 4.461935 q 0.186267,0 0.287867,0.09313 0.1016,0.09313 0.1016,0.270933 0,0.177801 -0.1016,0.279401 -0.1016,0.09313 -0.287867,0.09313 h -1.794934 v 4.842935 q 0,0.211667 -0.110066,0.3302 -0.1016,0.118534 -0.321734,0.118534 z m 4.469274,0.01693 q -0.677334,0 -1.1684,-0.254 -0.482601,-0.262467 -0.753534,-0.7366 -0.262467,-0.482601 -0.262467,-1.143001 0,-0.643467 0.262467,-1.126067 0.262467,-0.4826 0.719667,-0.753534 0.4572,-0.270933 1.0414,-0.270933 0.4318,0 0.770467,0.143933 0.338667,0.135467 0.575734,0.406401 0.245533,0.262466 0.364067,0.643466 0.127,0.381001 0.127,0.855134 0,0.143934 -0.08467,0.220134 -0.08467,0.06773 -0.254,0.06773 h -2.844801 v -0.524934 h 2.607734 l -0.143933,0.118534 q 0,-0.423334 -0.127,-0.719667 -0.118534,-0.296334 -0.364067,-0.448734 -0.237067,-0.160866 -0.592667,-0.160866 -0.397934,0 -0.677334,0.186266 -0.270933,0.186267 -0.414867,0.516467 -0.143933,0.3302 -0.143933,0.770467 v 0.0508 q 0,0.745067 0.347134,1.126067 0.3556,0.372534 1.024467,0.372534 0.254,0 0.5334,-0.06773 0.287867,-0.06773 0.541867,-0.2286 0.143933,-0.08467 0.254,-0.0762 0.118533,0.0085 0.186267,0.0762 0.0762,0.06773 0.09313,0.169334 0.01693,0.1016 -0.03387,0.211666 -0.0508,0.101601 -0.1778,0.186267 -0.287867,0.194734 -0.668867,0.296334 -0.381,0.09313 -0.7366,0.09313 z m 3.048007,-0.01693 q -0.2032,0 -0.313266,-0.110067 -0.110067,-0.118533 -0.110067,-0.321733 v -3.386668 q 0,-0.211667 0.110067,-0.321734 0.110066,-0.110067 0.3048,-0.110067 0.2032,0 0.3048,0.110067 0.110067,0.110067 0.110067,0.321734 v 0.694266 l -0.09313,-0.186266 q 0.169334,-0.448734 0.524934,-0.702734 0.3556,-0.254 0.855133,-0.254 0.516467,0 0.838201,0.245533 0.321733,0.245534 0.440267,0.753534 H 60.51197 q 0.160867,-0.465667 0.550334,-0.728134 0.389467,-0.270933 0.905933,-0.270933 0.474134,0 0.778934,0.186267 0.3048,0.1778 0.4572,0.550333 0.1524,0.364067 0.1524,0.922867 v 2.175935 q 0,0.2032 -0.118533,0.321733 -0.110067,0.110067 -0.313267,0.110067 -0.2032,0 -0.313267,-0.110067 -0.110066,-0.118533 -0.110066,-0.321733 V 26.35215 q 0,-0.524934 -0.186267,-0.770467 -0.1778,-0.245534 -0.592667,-0.245534 -0.465667,0 -0.7366,0.321734 -0.270934,0.321733 -0.270934,0.889 v 1.938868 q 0,0.2032 -0.110066,0.321733 -0.110067,0.110067 -0.313267,0.110067 -0.2032,0 -0.321734,-0.110067 -0.110066,-0.118533 -0.110066,-0.321733 V 26.35215 q 0,-0.524934 -0.177801,-0.770467 -0.1778,-0.245534 -0.592666,-0.245534 -0.465667,0 -0.736601,0.321734 -0.262466,0.321733 -0.262466,0.889 v 1.938868 q 0,0.4318 -0.431801,0.4318 z m 7.315197,1.524 q -0.2032,0 -0.313266,-0.110066 -0.110067,-0.110067 -0.110067,-0.321734 v -4.910668 q 0,-0.211667 0.110067,-0.321734 0.110066,-0.110067 0.3048,-0.110067 0.2032,0 0.313267,0.110067 0.110066,0.110067 0.110066,0.321734 v 0.7366 l -0.09313,-0.1778 q 0.135467,-0.4572 0.5334,-0.728134 0.397934,-0.2794 0.9398,-0.2794 0.550334,0 0.956734,0.262467 0.414867,0.262467 0.635,0.7366 0.228601,0.474134 0.228601,1.143001 0,0.651933 -0.228601,1.143 -0.220133,0.4826 -0.626533,0.745067 -0.4064,0.254 -0.965201,0.254 -0.5334,0 -0.931333,-0.270933 -0.397934,-0.270934 -0.5334,-0.719667 h 0.1016 v 2.065867 q 0,0.211667 -0.118534,0.321734 -0.110066,0.110066 -0.313267,0.110066 z m 1.583268,-2.167467 q 0.3556,0 0.618067,-0.169334 0.262466,-0.169333 0.4064,-0.499533 0.143933,-0.3302 0.143933,-0.8128 0,-0.728134 -0.321733,-1.100668 -0.313267,-0.372533 -0.846667,-0.372533 -0.347134,0 -0.618067,0.169333 -0.262467,0.160867 -0.4064,0.491067 -0.143934,0.3302 -0.143934,0.812801 0,0.719666 0.321734,1.100667 0.321733,0.381 0.846667,0.381 z m 4.792132,0.6604 q -0.626533,0 -1.083733,-0.262467 -0.448734,-0.262467 -0.702734,-0.745067 -0.254,-0.4826 -0.254,-1.134533 0,-0.499534 0.143933,-0.889001 0.143934,-0.389467 0.406401,-0.668867 0.270933,-0.287867 0.643466,-0.4318 0.381001,-0.1524 0.846667,-0.1524 0.618067,0 1.066801,0.262467 0.4572,0.262467 0.7112,0.745067 0.254,0.474133 0.254,1.134534 0,0.491066 -0.143933,0.889 -0.143934,0.397933 -0.414867,0.677333 -0.262467,0.279401 -0.643467,0.431801 -0.372533,0.143933 -0.829734,0.143933 z m 0,-0.6604 q 0.347134,0 0.609601,-0.169334 0.262466,-0.169333 0.4064,-0.499533 0.1524,-0.3302 0.1524,-0.8128 0,-0.728134 -0.321734,-1.100668 -0.321733,-0.372533 -0.846667,-0.372533 -0.3556,0 -0.618066,0.169333 -0.262467,0.160867 -0.414867,0.491067 -0.143934,0.3302 -0.143934,0.812801 0,0.719666 0.321734,1.100667 0.321733,0.381 0.855133,0.381 z"
       id="path5" /><path
       style="font-weight:300;font-size:4.23333px;font-family:Nunito;-inkscape-font-specification:'Nunito Light';fill:#cccccc"
       d="m 77.055833,28.485751 q -0.207433,0 -0.380999,-0.09737 -0.173567,-0.1016 -0.2794,-0.270933 -0.105833,-0.169333 -0.105833,-0.380999 0,-0.194734 0.09737,-0.364067 0.1016,-0.173566 0.275167,-0.2794 0.173566,-0.110066 0.393699,-0.110066 0.2032,0 0.376767,0.09737 0.1778,0.09737 0.283633,0.270934 0.105833,0.169333 0.105833,0.385233 0,0.207433 -0.105833,0.376766 -0.1016,0.169333 -0.275167,0.270933 -0.173566,0.1016 -0.385233,0.1016 z"
       id="path6" /><path
       style="font-size:4.93889px;font-family:Nunito;-inkscape-font-specification:'Nunito Medium';fill:#cccccc"
       d="m 79.992362,28.892856 q -0.103717,0 -0.162984,-0.05927 -0.05927,-0.05927 -0.05927,-0.172862 v -2.015067 q 0,-0.113594 0.05927,-0.167922 0.05927,-0.05927 0.162984,-0.05927 0.103716,0 0.158044,0.05927 0.05927,0.05433 0.05927,0.167922 v 0.404989 l -0.05433,-0.07408 q 0.103717,-0.281517 0.335845,-0.424745 0.237066,-0.143227 0.538339,-0.143227 0.291394,0 0.479072,0.103716 0.187678,0.103717 0.281517,0.316089 0.09384,0.212372 0.09384,0.538339 v 1.293989 q 0,0.113595 -0.05927,0.172862 -0.05433,0.05927 -0.162984,0.05927 -0.108655,0 -0.167922,-0.05927 -0.05927,-0.05927 -0.05927,-0.172862 v -1.269294 q 0,-0.321028 -0.123472,-0.469195 -0.123472,-0.148167 -0.395111,-0.148167 -0.316089,0 -0.508706,0.197556 -0.187677,0.192617 -0.187677,0.523522 v 1.165578 q 0,0.232128 -0.227189,0.232128 z m 3.625146,0.0099 q -0.3556,0 -0.617361,-0.153106 -0.261761,-0.153105 -0.404989,-0.434622 -0.143228,-0.281517 -0.143228,-0.661811 0,-0.286456 0.07902,-0.513645 0.08396,-0.232128 0.237066,-0.395111 0.153106,-0.162983 0.365478,-0.246944 0.217311,-0.0889 0.484011,-0.0889 0.3556,0 0.617362,0.153105 0.261761,0.153106 0.404989,0.434622 0.143227,0.276578 0.143227,0.656873 0,0.286455 -0.08396,0.518583 -0.07902,0.232128 -0.232128,0.395111 -0.153105,0.162984 -0.370416,0.251884 -0.212373,0.08396 -0.479073,0.08396 z m 0,-0.3556 q 0.217311,0 0.375356,-0.103717 0.162983,-0.103716 0.246944,-0.301272 0.0889,-0.197556 0.0889,-0.48895 0,-0.434622 -0.192616,-0.661811 -0.192617,-0.227189 -0.518584,-0.227189 -0.212372,0 -0.375355,0.103716 -0.158045,0.09878 -0.246945,0.296334 -0.0889,0.197555 -0.0889,0.48895 0,0.434622 0.192617,0.66675 0.197555,0.227189 0.518583,0.227189 z m 2.55858,0.345722 q -0.09384,0 -0.162984,-0.04445 -0.06914,-0.04939 -0.108655,-0.158044 l -0.735895,-1.96074 q -0.03457,-0.09384 -0.01976,-0.162983 0.01482,-0.06914 0.06915,-0.108656 0.05433,-0.03951 0.143228,-0.03951 0.08396,0 0.13335,0.03951 0.04939,0.03951 0.08396,0.143228 l 0.671689,1.896534 h -0.118533 l 0.691444,-1.906412 q 0.03457,-0.0889 0.0889,-0.128411 0.05927,-0.04445 0.143228,-0.04445 0.0889,0 0.148167,0.04445 0.05927,0.03951 0.08396,0.128411 l 0.681567,1.906412 H 87.85531 l 0.681567,-1.906412 q 0.03457,-0.09878 0.0889,-0.13335 0.05433,-0.03951 0.13335,-0.03951 0.0889,0 0.13335,0.04445 0.04445,0.04445 0.04939,0.118534 0.0099,0.06914 -0.01976,0.148166 l -0.735894,1.96074 q -0.03457,0.103716 -0.108656,0.153105 -0.06914,0.04939 -0.162983,0.04939 -0.09384,0 -0.167922,-0.04939 -0.06915,-0.04939 -0.108656,-0.153105 l -0.706261,-1.936045 h 0.227189 l -0.706262,1.936045 q -0.03951,0.103716 -0.108655,0.153105 -0.06914,0.04939 -0.167922,0.04939 z"
       id="path7" /></g><g
     style="fill:#cccccc"
     id="g13"
     transform="matrix(0.22916667,0,0,0.22916667,92.502627,24.710482)"><path
       d="M 0,0 H 24 V 24 H 0 Z"
       fill="none"
       id="path1" /><path
       d="M 7.58,4.08 6.15,2.65 C 3.75,4.48 2.17,7.3 2.03,10.5 h 2 C 4.18,7.85 5.54,5.53 7.58,4.08 Z m 12.39,6.42 h 2 C 21.82,7.3 20.24,4.48 17.85,2.65 l -1.42,1.43 c 2.02,1.45 3.39,3.77 3.54,6.42 z M 18,11 C 18,7.93 16.36,5.36 13.5,4.68 V 4 C 13.5,3.17 12.83,2.5 12,2.5 11.17,2.5 10.5,3.17 10.5,4 V 4.68 C 7.63,5.36 6,7.92 6,11 v 5 l -2,2 v 1 h 16 v -1 l -2,-2 z m -6,11 c 0.14,0 0.27,-0.01 0.4,-0.04 0.65,-0.14 1.18,-0.58 1.44,-1.18 0.1,-0.24 0.15,-0.5 0.15,-0.78 h -4 c 0.01,1.1 0.9,2 2.01,2 z"
       id="path2-0" /></g><path
     d="m 230.95344,596.38532 q -0.72,0 -1.12,-0.37333 -0.37333,-0.4 -0.37333,-1.12 v -15.81336 q 0,-0.72 0.37333,-1.09333 0.4,-0.4 1.12,-0.4 h 5.14668 q 4.64,0 7.14667,2.42667 2.53334,2.4 2.53334,6.96001 0,2.26667 -0.64,4.02667 -0.64,1.76 -1.89334,2.96 -1.22667,1.17334 -3.01334,1.81334 -1.78667,0.61333 -4.13333,0.61333 z m 1.28,-2.32 h 3.70668 q 1.76,0 3.04,-0.42667 1.30667,-0.45333 2.18667,-1.33333 0.88,-0.88 1.30667,-2.21334 0.42666,-1.33333 0.42666,-3.12 0,-3.54667 -1.76,-5.30668 -1.73333,-1.76 -5.2,-1.76 h -3.70668 z m 18.32001,2.50667 q -0.66666,0 -1.01333,-0.34667 -0.34667,-0.37333 -0.34667,-1.01333 v -10.66668 q 0,-0.66667 0.34667,-1.01334 0.34667,-0.34666 0.96,-0.34666 0.64,0 0.96,0.34666 0.34667,0.34667 0.34667,1.01334 v 1.94667 h -0.26667 q 0.42667,-1.60001 1.57334,-2.42667 1.14666,-0.82667 2.93333,-0.96001 0.48,-0.0267 0.74667,0.24001 0.29333,0.26666 0.32,0.82666 0.0533,0.56 -0.24,0.90667 -0.29333,0.32 -0.90667,0.37333 l -0.50666,0.0533 q -1.73334,0.16 -2.64001,1.09333 -0.90667,0.93334 -0.90667,2.56001 v 6.05334 q 0,0.64 -0.34666,1.01333 -0.32,0.34667 -1.01334,0.34667 z m 9.91999,-0.0267 q -0.64,0 -0.98666,-0.37333 -0.34667,-0.4 -0.34667,-1.09334 v -10.40001 q 0,-0.69333 0.34667,-1.06667 0.34666,-0.37333 0.98666,-0.37333 0.64,0 0.98667,0.37333 0.37334,0.37334 0.37334,1.06667 v 10.40001 q 0,0.69334 -0.34667,1.09334 -0.34667,0.37333 -1.01334,0.37333 z m 0,-16.08002 q -0.8,0 -1.25333,-0.4 -0.42667,-0.4 -0.42667,-1.12 0,-0.74667 0.42667,-1.12 0.45333,-0.4 1.25333,-0.4 0.8,0 1.22667,0.4 0.45334,0.37333 0.45334,1.12 0,0.72 -0.45334,1.12 -0.42667,0.4 -1.22667,0.4 z m 6.48001,16.10669 q -0.64,0 -0.98666,-0.34667 -0.34667,-0.37333 -0.34667,-1.01333 v -10.66668 q 0,-0.66667 0.34667,-1.01334 0.34666,-0.34666 0.96,-0.34666 0.64,0 0.96,0.34666 0.34667,0.34667 0.34667,1.01334 v 2.08 l -0.29334,-0.48 q 0.58667,-1.49334 1.84,-2.24 1.25334,-0.77334 2.88001,-0.77334 1.54667,0 2.56,0.58667 1.04,0.56 1.54667,1.73333 0.50667,1.14667 0.50667,2.90667 v 6.85335 q 0,0.64 -0.34667,1.01333 -0.34667,0.34667 -0.98667,0.34667 -0.66666,0 -1.01333,-0.34667 -0.34667,-0.37333 -0.34667,-1.01333 v -6.69334 q 0,-1.68001 -0.66667,-2.45334 -0.64,-0.77334 -2.02667,-0.77334 -1.62666,0 -2.61333,1.01334 -0.96,1.01333 -0.96,2.72 v 6.18668 q 0,1.36 -1.36001,1.36 z m 15.36003,0 q -0.64,0 -0.98667,-0.34667 -0.34667,-0.37333 -0.34667,-1.01333 v -16.45336 q 0,-0.66666 0.34667,-1.01333 0.34667,-0.34667 0.98667,-0.34667 0.64,0 0.98667,0.34667 0.37333,0.34667 0.37333,1.01333 v 10.29335 h 0.0533 l 4.98668,-4.96001 q 0.42666,-0.42666 0.77333,-0.66666 0.34667,-0.24 0.90667,-0.24 0.56,0 0.85333,0.29333 0.29334,0.29333 0.29334,0.72 0,0.4 -0.4,0.82667 l -5.28001,5.22667 v -1.25333 l 5.76001,5.73334 q 0.42666,0.42666 0.4,0.85333 -0.0267,0.42667 -0.34667,0.72 -0.32,0.26667 -0.8,0.26667 -0.61334,0 -0.98667,-0.24 -0.34667,-0.24 -0.82667,-0.72 l -5.33334,-5.17334 h -0.0533 v 4.77334 q 0,1.36 -1.36,1.36 z m 23.62672,0.0533 q -1.36,0 -2.45334,-0.53333 -1.06667,-0.53334 -1.68,-1.44 -0.61334,-0.90667 -0.61334,-2.05334 0,-1.44 0.72001,-2.26667 0.74666,-0.85333 2.42667,-1.2 1.70666,-0.37333 4.58667,-0.37333 h 1.25333 v 1.65333 h -1.22667 q -1.92,0 -3.04,0.18667 -1.12,0.18666 -1.6,0.64 -0.45334,0.42667 -0.45334,1.2 0,1.01333 0.69334,1.65334 0.69333,0.61333 1.92,0.61333 0.98667,0 1.73334,-0.45333 0.74666,-0.48 1.17333,-1.28001 0.45334,-0.8 0.45334,-1.84 v -3.06667 q 0,-1.52 -0.64001,-2.18667 -0.64,-0.66667 -2.10666,-0.66667 -0.85334,0 -1.78667,0.21334 -0.90667,0.21333 -1.89334,0.72 -0.45333,0.21333 -0.77333,0.13333 -0.32,-0.08 -0.50667,-0.34666 -0.18667,-0.29334 -0.21333,-0.61334 0,-0.34667 0.16,-0.66667 0.18666,-0.32 0.61333,-0.48 1.17333,-0.56 2.32,-0.8 1.14667,-0.24 2.16001,-0.24 1.78666,0 2.93333,0.56 1.17334,0.56 1.73334,1.70667 0.56,1.14667 0.56,2.96 v 6.85335 q 0,0.64 -0.32,1.01333 -0.32,0.34667 -0.93334,0.34667 -0.58666,0 -0.93333,-0.34667 -0.34667,-0.37333 -0.34667,-1.01333 v -1.73334 h 0.24 q -0.21333,0.98667 -0.8,1.70667 -0.56,0.69333 -1.41333,1.06667 -0.85334,0.37333 -1.94667,0.37333 z m 23.09337,4.80001 q -1.44,0 -2.8,-0.29334 -1.33334,-0.29333 -2.42667,-0.96 -0.4,-0.21333 -0.53334,-0.53333 -0.13333,-0.29333 -0.08,-0.61333 0.08,-0.32001 0.29334,-0.56001 0.21333,-0.24 0.50666,-0.32 0.32001,-0.08 0.66667,0.10667 1.17334,0.64 2.21334,0.85334 1.06667,0.24 1.97333,0.24 1.86667,0 2.80001,-0.96001 0.93333,-0.93333 0.93333,-2.77333 v -2.72001 h 0.24 q -0.4,1.46667 -1.68,2.32001 -1.28,0.85333 -2.96,0.85333 -1.76001,0 -3.06667,-0.8 -1.30667,-0.82667 -2.02667,-2.26667 -0.72,-1.46667 -0.72,-3.41334 0,-1.46667 0.4,-2.64 0.42666,-1.17333 1.17333,-2.02667 0.77334,-0.85333 1.84,-1.30667 1.09334,-0.48 2.40001,-0.48 1.70667,0 2.96,0.85334 1.28,0.85333 1.65334,2.32 l -0.26667,0.45333 v -2.21333 q 0,-0.66667 0.34667,-1.01334 0.37333,-0.34666 0.98666,-0.34666 0.64,0 0.98667,0.34666 0.34667,0.34667 0.34667,1.01334 v 10.74668 q 0,3.04 -1.57334,4.58667 -1.57333,1.54667 -4.58667,1.54667 z m -0.21333,-7.46668 q 1.17333,0 2,-0.53333 0.82667,-0.53334 1.28,-1.52 0.45334,-0.98667 0.45334,-2.32001 0,-2 -1.01334,-3.17333 -0.98667,-1.17334 -2.72,-1.17334 -1.14667,0 -1.97334,0.53334 -0.82667,0.53333 -1.30667,1.52 -0.45333,0.96 -0.45333,2.29333 0,2.02667 1.01333,3.20001 1.01334,1.17333 2.72001,1.17333 z m 14.34668,2.66667 q -2.08,0 -3.14667,-1.2 -1.04,-1.22667 -1.04,-3.52 v -13.14669 q 0,-0.66666 0.34667,-1.01333 0.34666,-0.34667 0.98666,-0.34667 0.64001,0 0.98667,0.34667 0.37334,0.34667 0.37334,1.01333 v 12.98669 q 0,1.33333 0.53333,2 0.56,0.64 1.6,0.64 0.24,0 0.42667,0 0.18667,-0.0267 0.37333,-0.0533 0.32,-0.0267 0.45334,0.18666 0.13333,0.18667 0.13333,0.8 0,0.56 -0.24,0.88 -0.24,0.29334 -0.77333,0.37334 -0.24,0.0267 -0.50667,0.0267 -0.26667,0.0267 -0.50667,0.0267 z m 8.13334,0 q -1.36,0 -2.45334,-0.53333 -1.06667,-0.53334 -1.68,-1.44 -0.61333,-0.90667 -0.61333,-2.05334 0,-1.44 0.72,-2.26667 0.74666,-0.85333 2.42667,-1.2 1.70667,-0.37333 4.58667,-0.37333 h 1.25333 v 1.65333 h -1.22666 q -1.92001,0 -3.04001,0.18667 -1.12,0.18666 -1.6,0.64 -0.45333,0.42667 -0.45333,1.2 0,1.01333 0.69333,1.65334 0.69333,0.61333 1.92,0.61333 0.98667,0 1.73334,-0.45333 0.74667,-0.48 1.17333,-1.28001 0.45334,-0.8 0.45334,-1.84 v -3.06667 q 0,-1.52 -0.64,-2.18667 -0.64,-0.66667 -2.10667,-0.66667 -0.85334,0 -1.78667,0.21334 -0.90667,0.21333 -1.89334,0.72 -0.45333,0.21333 -0.77333,0.13333 -0.32,-0.08 -0.50667,-0.34666 -0.18667,-0.29334 -0.21333,-0.61334 0,-0.34667 0.16,-0.66667 0.18666,-0.32 0.61333,-0.48 1.17334,-0.56 2.32,-0.8 1.14667,-0.24 2.16001,-0.24 1.78667,0 2.93333,0.56 1.17334,0.56 1.73334,1.70667 0.56,1.14667 0.56,2.96 v 6.85335 q 0,0.64 -0.32,1.01333 -0.32,0.34667 -0.93333,0.34667 -0.58667,0 -0.93334,-0.34667 -0.34667,-0.37333 -0.34667,-1.01333 v -1.73334 h 0.24 q -0.21333,0.98667 -0.8,1.70667 -0.56,0.69333 -1.41333,1.06667 -0.85334,0.37333 -1.94667,0.37333 z m 14.72004,0 q -1.17334,0 -2.42667,-0.26666 -1.22667,-0.26667 -2.26667,-0.90667 -0.34667,-0.24 -0.48,-0.53334 -0.13334,-0.29333 -0.10667,-0.58666 0.0533,-0.32 0.24,-0.53334 0.21333,-0.24 0.50667,-0.29333 0.32,-0.0533 0.66667,0.13333 1.04,0.58667 2,0.82667 0.96,0.21333 1.89333,0.21333 1.41334,0 2.13334,-0.50666 0.72,-0.50667 0.72,-1.36001 0,-0.69333 -0.48,-1.06666 -0.48,-0.4 -1.44,-0.61334 l -2.53334,-0.50667 q -1.65333,-0.34666 -2.50667,-1.22666 -0.85333,-0.88 -0.85333,-2.24001 0,-1.22666 0.66666,-2.13333 0.66667,-0.90667 1.86667,-1.38667 1.20001,-0.50667 2.77334,-0.50667 1.17334,0 2.21334,0.29334 1.04,0.29333 1.92,0.88 0.34667,0.18666 0.45333,0.50666 0.10667,0.29334 0.0267,0.58667 -0.0533,0.29333 -0.26667,0.53334 -0.21333,0.21333 -0.53333,0.26666 -0.29333,0.0267 -0.66667,-0.16 -0.8,-0.50667 -1.6,-0.72 -0.77333,-0.21333 -1.54667,-0.21333 -1.41333,0 -2.13334,0.53333 -0.69333,0.50667 -0.69333,1.38667 0,0.66667 0.42667,1.09333 0.42667,0.42667 1.33333,0.61334 l 2.53334,0.50667 q 1.73333,0.34666 2.61334,1.17333 0.90666,0.82667 0.90666,2.24 0,1.84001 -1.46666,2.90667 -1.46667,1.06667 -3.89334,1.06667 z m 12.90666,0 q -1.17334,0 -2.42667,-0.26666 -1.22667,-0.26667 -2.26667,-0.90667 -0.34667,-0.24 -0.48,-0.53334 -0.13333,-0.29333 -0.10667,-0.58666 0.0533,-0.32 0.24,-0.53334 0.21334,-0.24 0.50667,-0.29333 0.32,-0.0533 0.66667,0.13333 1.04,0.58667 2,0.82667 0.96,0.21333 1.89334,0.21333 1.41333,0 2.13333,-0.50666 0.72,-0.50667 0.72,-1.36001 0,-0.69333 -0.48,-1.06666 -0.48,-0.4 -1.44,-0.61334 l -2.53334,-0.50667 q -1.65333,-0.34666 -2.50667,-1.22666 -0.85333,-0.88 -0.85333,-2.24001 0,-1.22666 0.66667,-2.13333 0.66666,-0.90667 1.86667,-1.38667 1.2,-0.50667 2.77333,-0.50667 1.17334,0 2.21334,0.29334 1.04,0.29333 1.92,0.88 0.34667,0.18666 0.45334,0.50666 0.10666,0.29334 0.0267,0.58667 -0.0533,0.29333 -0.26666,0.53334 -0.21334,0.21333 -0.53334,0.26666 -0.29333,0.0267 -0.66667,-0.16 -0.8,-0.50667 -1.6,-0.72 -0.77333,-0.21333 -1.54667,-0.21333 -1.41333,0 -2.13333,0.53333 -0.69334,0.50667 -0.69334,1.38667 0,0.66667 0.42667,1.09333 0.42667,0.42667 1.33333,0.61334 l 2.53334,0.50667 q 1.73334,0.34666 2.61334,1.17333 0.90667,0.82667 0.90667,2.24 0,1.84001 -1.46667,2.90667 -1.46667,1.06667 -3.89334,1.06667 z m 21.04,0 q -1.97333,0 -3.41333,-0.82667 -1.41334,-0.82666 -2.21334,-2.34667 -0.8,-1.52 -0.8,-3.57333 0,-1.57334 0.45333,-2.80001 0.45334,-1.22666 1.28001,-2.10667 0.85333,-0.90666 2.02666,-1.36 1.20001,-0.48 2.66667,-0.48 1.94667,0 3.36001,0.82667 1.44,0.82667 2.24,2.34667 0.8,1.49333 0.8,3.57334 0,1.54667 -0.45333,2.8 -0.45334,1.25334 -1.30667,2.13334 -0.82667,0.88 -2.02667,1.36 -1.17333,0.45333 -2.61334,0.45333 z m 0,-2.08 q 1.09334,0 1.92001,-0.53333 0.82666,-0.53334 1.28,-1.57334 0.48,-1.04 0.48,-2.56 0,-2.29334 -1.01334,-3.46667 -1.01333,-1.17334 -2.66667,-1.17334 -1.12,0 -1.94666,0.53334 -0.82667,0.50666 -1.30667,1.54666 -0.45334,1.04 -0.45334,2.56001 0,2.26667 1.01334,3.46667 1.01333,1.2 2.69333,1.2 z m 11.41338,2.02667 q -0.64,0 -1.01333,-0.34667 -0.34667,-0.37333 -0.34667,-1.01333 v -9.76002 H 408.527 q -0.50666,0 -0.8,-0.26666 -0.29333,-0.29334 -0.29333,-0.77334 0,-0.50666 0.29333,-0.77333 0.29334,-0.26667 0.8,-0.26667 h 2.26667 l -0.77333,0.72 v -0.96 q 0,-2.64 1.30667,-3.97334 1.30666,-1.36 3.81333,-1.6 l 0.82667,-0.0533 q 0.45334,-0.0533 0.72,0.13333 0.26667,0.18667 0.34667,0.48 0.08,0.29334 0,0.61334 -0.0533,0.29333 -0.26667,0.53333 -0.21333,0.24 -0.53333,0.26667 l -0.50667,0.0267 q -1.57333,0.13334 -2.29333,0.90667 -0.72001,0.74667 -0.72001,2.29334 v 1.04 l -0.37333,-0.42667 h 2.96 q 0.56001,0 0.82667,0.26667 0.29334,0.26667 0.29334,0.77333 0,0.48 -0.29334,0.77334 -0.26666,0.26666 -0.82667,0.26666 h -2.58667 v 9.76002 q 0,1.36 -1.33333,1.36 z m 18.9067,0 q -0.56,0 -0.98667,-0.26667 -0.4,-0.29333 -0.64,-0.90667 l -3.92,-10.37334 q -0.21334,-0.53334 -0.13334,-0.93334 0.08,-0.42666 0.40001,-0.66666 0.34666,-0.24 0.88,-0.24 0.48,0 0.77333,0.24 0.32,0.21333 0.53333,0.85333 l 3.49334,9.84001 h -0.64 l 3.62667,-9.94668 q 0.18667,-0.50666 0.50667,-0.74666 0.32,-0.24 0.82667,-0.24 0.50667,0 0.82667,0.24 0.34666,0.24 0.50666,0.74666 l 3.54667,9.94668 h -0.58666 l 3.54667,-9.89334 q 0.21333,-0.61334 0.53333,-0.82667 0.34667,-0.21333 0.77334,-0.21333 0.53333,0 0.8,0.26666 0.29333,0.26667 0.32,0.69334 0.0533,0.4 -0.13334,0.88 l -3.92,10.37334 q -0.24,0.58667 -0.66667,0.88 -0.4,0.29334 -0.93333,0.29334 -0.56,0 -0.98667,-0.29334 -0.4,-0.29333 -0.64,-0.88 l -3.73334,-10.10668 h 1.33334 l -3.70668,10.10668 q -0.21333,0.58667 -0.64,0.88 -0.4,0.29334 -0.96,0.29334 z m 21.7067,0.0533 q -1.36,0 -2.45334,-0.53333 -1.06666,-0.53334 -1.68,-1.44 -0.61333,-0.90667 -0.61333,-2.05334 0,-1.44 0.72,-2.26667 0.74667,-0.85333 2.42667,-1.2 1.70667,-0.37333 4.58667,-0.37333 h 1.25334 v 1.65333 h -1.22667 q -1.92001,0 -3.04001,0.18667 -1.12,0.18666 -1.6,0.64 -0.45333,0.42667 -0.45333,1.2 0,1.01333 0.69333,1.65334 0.69334,0.61333 1.92,0.61333 0.98667,0 1.73334,-0.45333 0.74667,-0.48 1.17333,-1.28001 0.45334,-0.8 0.45334,-1.84 v -3.06667 q 0,-1.52 -0.64,-2.18667 -0.64,-0.66667 -2.10667,-0.66667 -0.85334,0 -1.78667,0.21334 -0.90667,0.21333 -1.89334,0.72 -0.45333,0.21333 -0.77333,0.13333 -0.32,-0.08 -0.50667,-0.34666 -0.18666,-0.29334 -0.21333,-0.61334 0,-0.34667 0.16,-0.66667 0.18667,-0.32 0.61333,-0.48 1.17334,-0.56 2.32001,-0.8 1.14666,-0.24 2.16,-0.24 1.78667,0 2.93334,0.56 1.17333,0.56 1.73333,1.70667 0.56,1.14667 0.56,2.96 v 6.85335 q 0,0.64 -0.32,1.01333 -0.32,0.34667 -0.93333,0.34667 -0.58667,0 -0.93334,-0.34667 -0.34666,-0.37333 -0.34666,-1.01333 v -1.73334 h 0.24 q -0.21334,0.98667 -0.80001,1.70667 -0.56,0.69333 -1.41333,1.06667 -0.85334,0.37333 -1.94667,0.37333 z m 15.70671,0 q -1.60001,0 -2.69334,-0.56 -1.09334,-0.56 -1.62667,-1.65333 -0.53333,-1.09334 -0.53333,-2.66667 v -6.29335 h -1.60001 q -0.53333,0 -0.82666,-0.26666 -0.29334,-0.29334 -0.29334,-0.77334 0,-0.50666 0.29334,-0.77333 0.29333,-0.26667 0.82666,-0.26667 h 1.60001 v -2.74667 q 0,-0.66667 0.34666,-1.01333 0.37334,-0.34667 1.01334,-0.34667 0.64,0 0.98667,0.34667 0.34666,0.34666 0.34666,1.01333 v 2.74667 h 3.12001 q 0.53333,0 0.82667,0.26667 0.29333,0.26667 0.29333,0.77333 0,0.48 -0.29333,0.77334 -0.29334,0.26666 -0.82667,0.26666 h -3.12001 v 6.08001 q 0,1.41334 0.58667,2.13334 0.61334,0.72 1.97334,0.72 0.48,0 0.82666,-0.08 0.37334,-0.10667 0.61334,-0.13333 0.29333,0 0.48,0.21333 0.18667,0.18667 0.18667,0.74667 0,0.4 -0.16,0.74666 -0.13334,0.34667 -0.50667,0.45334 -0.32,0.10667 -0.88,0.18667 -0.53334,0.10666 -0.96,0.10666 z m 10.16003,0 q -2.13333,0 -3.68,-0.8 -1.52,-0.82667 -2.37334,-2.32 -0.82666,-1.52 -0.82666,-3.60001 0,-2.02667 0.82666,-3.54667 0.82667,-1.52 2.26667,-2.37333 1.44,-0.85334 3.28001,-0.85334 1.36,0 2.42667,0.45334 1.06666,0.42666 1.81333,1.28 0.77334,0.82666 1.14667,2.02667 0.4,1.2 0.4,2.69333 0,0.45334 -0.26667,0.69334 -0.26666,0.21333 -0.8,0.21333 h -8.96001 v -1.65333 h 8.21334 l -0.45333,0.37333 q 0,-1.33334 -0.4,-2.26667 -0.37333,-0.93333 -1.14667,-1.41334 -0.74667,-0.50666 -1.86667,-0.50666 -1.25333,0 -2.13333,0.58666 -0.85334,0.58667 -1.30667,1.62667 -0.45334,1.04 -0.45334,2.42667 v 0.16 q 0,2.34667 1.09334,3.54667 1.12,1.17334 3.22667,1.17334 0.8,0 1.68,-0.21333 0.90667,-0.21334 1.70667,-0.72001 0.45334,-0.26666 0.8,-0.24 0.37334,0.0267 0.58667,0.24 0.24,0.21334 0.29333,0.53334 0.0533,0.32 -0.10666,0.66667 -0.16,0.32 -0.56,0.58666 -0.90667,0.61334 -2.10667,0.93334 -1.2,0.29333 -2.32001,0.29333 z m 9.57337,-0.0533 q -0.66667,0 -1.01334,-0.34667 -0.34666,-0.37333 -0.34666,-1.01333 v -10.66668 q 0,-0.66667 0.34666,-1.01334 0.34667,-0.34666 0.96001,-0.34666 0.64,0 0.96,0.34666 0.34666,0.34667 0.34666,1.01334 v 1.94667 h -0.26666 q 0.42666,-1.60001 1.57333,-2.42667 1.14667,-0.82667 2.93334,-0.96001 0.48,-0.0267 0.74667,0.24001 0.29333,0.26666 0.32,0.82666 0.0533,0.56 -0.24,0.90667 -0.29334,0.32 -0.90667,0.37333 l -0.50667,0.0533 q -1.73333,0.16 -2.64,1.09333 -0.90667,0.93334 -0.90667,2.56001 v 6.05334 q 0,0.64 -0.34667,1.01333 -0.32,0.34667 -1.01333,0.34667 z"
     id="text14"
     style="font-weight:600;font-size:26.6667px;line-height:48.594px;font-family:Nunito;-inkscape-font-specification:'Nunito Semi-Bold';letter-spacing:0px;white-space:pre;fill:#b3b3b3;stroke:#b3b3b3;stroke-width:0"
     transform="matrix(0.26458333,0,0,0.26458333,-27.731853,-119.20147)"
     aria-label="Drink a glass of water" /><path
     style="font-weight:500;font-size:4.93889px;line-height:9.00002px;font-family:Nunito;-inkscape-font-specification:'Nunito Medium';letter-spacing:0px;fill:#626463;stroke-width:2.11667"
     d="m 21.000178,7.5115728 q -0.118534,0 -0.182739,-0.064205 -0.06421,-0.064206 -0.06421,-0.182739 V 4.2765999 q 0,-0.1185334 0.06421,-0.1827389 0.06421,-0.064206 0.182739,-0.064206 h 0.953205 q 0.854428,0 1.313745,0.449439 0.464256,0.4445001 0.464256,1.2890503 0,0.4198056 -0.118534,0.7457724 -0.118533,0.3259667 -0.345722,0.5482167 -0.227189,0.2173112 -0.558094,0.3358446 -0.325967,0.1135944 -0.755651,0.1135944 z M 21.21255,7.1214005 h 0.7112 q 0.335845,0 0.582789,-0.083961 0.246945,-0.083961 0.409928,-0.2518834 0.167922,-0.1679222 0.251883,-0.4198056 0.08396,-0.2568223 0.08396,-0.5976057 0,-0.676628 -0.335844,-1.0124725 Q 22.585561,4.4198277 21.92375,4.4198277 h -0.7112 z m 3.936294,0.4346223 q -0.246945,0 -0.449439,-0.098778 -0.197556,-0.098778 -0.31115,-0.2667 -0.108656,-0.1679223 -0.108656,-0.3753556 0,-0.2667001 0.13335,-0.4198057 0.13335,-0.1531056 0.449439,-0.2173112 0.316089,-0.069144 0.849489,-0.069144 h 0.232128 v 0.2864556 h -0.22225 q -0.380294,0 -0.602544,0.034572 -0.217312,0.034572 -0.306212,0.1234723 -0.0889,0.083961 -0.0889,0.2370667 0,0.1926167 0.13335,0.316089 0.138289,0.1234722 0.375356,0.1234722 0.187678,0 0.330906,-0.0889 0.143228,-0.093839 0.227189,-0.2469445 0.08396,-0.1580445 0.08396,-0.360539 V 5.9657003 q 0,-0.2913945 -0.118534,-0.4198057 -0.118533,-0.13335 -0.40005,-0.13335 -0.162983,0 -0.335844,0.04445 -0.172861,0.04445 -0.360539,0.1382889 -0.07408,0.034572 -0.128411,0.024694 -0.05433,-0.014817 -0.0889,-0.059267 -0.02963,-0.049389 -0.03457,-0.1037167 0,-0.059267 0.02469,-0.1135945 0.02963,-0.054328 0.09878,-0.079022 0.217311,-0.1086556 0.429683,-0.1531056 0.217311,-0.049389 0.404989,-0.049389 0.321028,0 0.528461,0.1037167 0.207434,0.098778 0.31115,0.3111501 0.103717,0.2074333 0.103717,0.5334001 v 1.3038669 q 0,0.1135945 -0.05433,0.1728612 -0.05433,0.059267 -0.158044,0.059267 -0.09878,0 -0.158045,-0.059267 -0.05433,-0.059267 -0.05433,-0.1728612 V 6.9633561 h 0.04445 q -0.03951,0.1827389 -0.148167,0.3160889 -0.108656,0.13335 -0.271639,0.2074334 -0.158045,0.069144 -0.360539,0.069144 z m 2.395371,0.8791225 q -0.07902,0 -0.133351,-0.04445 -0.04939,-0.039511 -0.05927,-0.1135945 -0.0049,-0.069145 0.02963,-0.1481667 L 27.717076,7.368345 V 7.5560228 L 26.783625,5.3829113 q -0.03457,-0.083961 -0.02469,-0.1531056 0.0099,-0.069145 0.06421,-0.1135945 0.05927,-0.04445 0.158044,-0.04445 0.08396,0 0.13335,0.039511 0.04939,0.039511 0.09384,0.1382889 l 0.775406,1.9113504 h -0.138289 l 0.790222,-1.9113504 q 0.03951,-0.098778 0.09384,-0.1382889 0.05433,-0.039511 0.148167,-0.039511 0.08396,0 0.128411,0.04445 0.04939,0.04445 0.05927,0.1135945 0.0099,0.069144 -0.02963,0.1481667 l -1.2446,2.8793728 q -0.04939,0.1037167 -0.103717,0.1382889 -0.04939,0.039511 -0.143227,0.039511 z M 30.68535,7.5461451 q -0.113594,0 -0.172861,-0.059267 -0.05927,-0.064206 -0.05927,-0.1778001 V 4.4198277 h -1.081617 q -0.09384,0 -0.148166,-0.049389 -0.05433,-0.054328 -0.05433,-0.1481667 0,-0.093839 0.05433,-0.1432278 0.05433,-0.049389 0.148166,-0.049389 h 2.622551 q 0.09878,0 0.148167,0.049389 0.05433,0.049389 0.05433,0.1432278 0,0.093839 -0.05433,0.1481667 -0.04939,0.049389 -0.148167,0.049389 h -1.081617 v 2.8892506 q 0,0.1135945 -0.05927,0.1778001 -0.05433,0.059267 -0.167922,0.059267 z m 2.589102,0.00988 q -0.390172,0 -0.671689,-0.1481667 Q 32.326185,7.2547506 32.17308,6.9781727 32.019974,6.696656 32.019974,6.3163615 q 0,-0.3753557 0.148167,-0.6568724 0.153105,-0.2815167 0.414866,-0.4395612 0.266701,-0.1580445 0.607484,-0.1580445 0.242006,0 0.434622,0.083961 0.197556,0.079022 0.335845,0.2321279 0.138289,0.1531056 0.207433,0.3753556 0.07408,0.2173112 0.07408,0.493889 0,0.079022 -0.04939,0.1234723 -0.04445,0.039511 -0.13335,0.039511 H 32.370635 V 6.1237448 h 1.575506 l -0.08396,0.069144 q 0,-0.2568223 -0.07902,-0.4346223 -0.07408,-0.1827389 -0.22225,-0.2765778 -0.143228,-0.093839 -0.360539,-0.093839 -0.237067,0 -0.404989,0.1135945 -0.167923,0.1086556 -0.256823,0.3111501 -0.0889,0.1975556 -0.0889,0.4593168 v 0.029633 q 0,0.4445001 0.212373,0.671689 0.212372,0.227189 0.612422,0.227189 0.158045,0 0.321028,-0.039511 0.167922,-0.039511 0.321028,-0.1432278 0.07408,-0.04445 0.13335,-0.039511 0.06421,0 0.103716,0.039511 0.03951,0.034572 0.04939,0.0889 0.0099,0.049389 -0.01482,0.1086555 -0.0247,0.059267 -0.09384,0.1037167 -0.162984,0.1135945 -0.390173,0.1778001 -0.22225,0.059267 -0.429683,0.059267 z m 1.758247,-0.00988 q -0.103717,0 -0.162984,-0.059267 -0.05927,-0.059267 -0.05927,-0.1728612 V 5.2989501 q 0,-0.1135944 0.05927,-0.1679222 0.05927,-0.059267 0.162984,-0.059267 0.103716,0 0.158044,0.059267 0.05927,0.054328 0.05927,0.1679222 v 0.4198057 l -0.05433,-0.0889 q 0.09384,-0.271639 0.301272,-0.4198057 0.212373,-0.1481667 0.503767,-0.1481667 0.306211,0 0.493889,0.1481667 0.187678,0.1432278 0.251884,0.4395612 h -0.06914 q 0.0889,-0.2716389 0.316089,-0.4296834 0.232128,-0.1580445 0.538339,-0.1580445 0.271639,0 0.4445,0.1086556 0.1778,0.1037167 0.2667,0.3160889 0.0889,0.2074334 0.0889,0.5334002 v 1.2939891 q 0,0.1135945 -0.05927,0.1728612 -0.05927,0.059267 -0.162984,0.059267 -0.108655,0 -0.167922,-0.059267 -0.05927,-0.059267 -0.05927,-0.1728612 V 6.0397836 q 0,-0.3160889 -0.108655,-0.4642556 -0.108656,-0.1481667 -0.365478,-0.1481667 -0.281517,0 -0.449439,0.1975556 -0.162983,0.1926167 -0.162983,0.5334001 v 1.1557002 q 0,0.1135945 -0.05927,0.1728612 -0.05433,0.059267 -0.162984,0.059267 -0.108655,0 -0.167922,-0.059267 -0.05927,-0.059267 -0.05927,-0.1728612 V 6.0397836 q 0,-0.3160889 -0.108656,-0.4642556 -0.108656,-0.1481667 -0.365478,-0.1481667 -0.281517,0 -0.449439,0.1975556 -0.162983,0.1926167 -0.162983,0.5334001 v 1.1557002 q 0,0.2321279 -0.227189,0.2321279 z m 4.242507,0.8890002 q -0.103717,0 -0.162983,-0.059267 -0.05927,-0.059267 -0.05927,-0.1679223 V 5.2989501 q 0,-0.1135944 0.05927,-0.1679222 0.05927,-0.059267 0.162983,-0.059267 0.108656,0 0.162984,0.059267 0.05927,0.054328 0.05927,0.1679222 v 0.449439 l -0.05433,-0.0889 q 0.07902,-0.271639 0.31115,-0.4346223 0.232128,-0.1629834 0.558095,-0.1629834 0.321028,0 0.558095,0.1531056 0.237066,0.1481667 0.370416,0.4296834 0.13335,0.2765779 0.13335,0.6618113 0,0.3802945 -0.13335,0.6667501 -0.128411,0.2815168 -0.370416,0.4346223 -0.237067,0.1481667 -0.558095,0.1481667 -0.321028,0 -0.553156,-0.1629833 -0.232127,-0.1629834 -0.31115,-0.4296834 h 0.05433 v 1.2446002 q 0,0.1086556 -0.05927,0.1679223 -0.05927,0.059267 -0.167922,0.059267 z m 0.93345,-1.2347225 q 0.212373,0 0.370417,-0.1037167 0.162983,-0.1037167 0.251884,-0.3012723 0.0889,-0.1975556 0.0889,-0.4889501 0,-0.4346223 -0.192617,-0.6618113 -0.192617,-0.2271889 -0.518584,-0.2271889 -0.217311,0 -0.380294,0.1037167 -0.158045,0.098778 -0.246945,0.2963334 -0.08396,0.1975556 -0.08396,0.4889501 0,0.4346223 0.192617,0.6667501 0.192617,0.227189 0.518583,0.227189 z m 2.765778,0.3556 q -0.3556,0 -0.617361,-0.1531055 -0.261761,-0.1531056 -0.404989,-0.4346224 -0.143228,-0.2815167 -0.143228,-0.6618112 0,-0.2864556 0.07902,-0.5136446 0.08396,-0.2321278 0.237066,-0.3951112 0.153106,-0.1629833 0.365478,-0.2469445 0.217311,-0.0889 0.484011,-0.0889 0.3556,0 0.617362,0.1531056 0.261761,0.1531056 0.404989,0.4346223 0.143227,0.2765779 0.143227,0.6568724 0,0.2864556 -0.08396,0.5185834 -0.07902,0.2321279 -0.232128,0.3951112 -0.153105,0.1629834 -0.370416,0.2518834 -0.212373,0.083961 -0.479073,0.083961 z m 0,-0.3556 q 0.217311,0 0.375356,-0.1037167 0.162983,-0.1037167 0.246944,-0.3012723 0.0889,-0.1975556 0.0889,-0.4889501 0,-0.4346223 -0.192616,-0.6618113 -0.192617,-0.2271889 -0.518584,-0.2271889 -0.212372,0 -0.375355,0.1037167 -0.158045,0.098778 -0.246945,0.2963334 -0.0889,0.1975556 -0.0889,0.4889501 0,0.4346223 0.192617,0.6667501 0.197555,0.227189 0.518583,0.227189 z"
     id="text4-3"
     aria-label="DayTempo " /><circle
     style="fill:#626463;fill-opacity:1;stroke:none;stroke-width:4.4e-08;stroke-dasharray:none;stroke-opacity:1"
     id="path17"
     cx="13.459932"
     cy="6.232398"
     r="2" /><g
     id="g18"
     transform="translate(-27.260103,-114.93606)"><g
       style="fill:#cccccc;stroke:none;stroke-opacity:1"
       id="g16"
       transform="matrix(0.26458333,0,0,0.26458333,179.79373,117.99347)"><path
         d="M 0,0 H 24 V 24 H 0 Z"
         fill="none"
         id="path1-5"
         style="stroke:none;stroke-opacity:1" /><path
         d="M 15.67,4 H 14 V 2 H 10 V 4 H 8.33 C 7.6,4 7,4.6 7,5.33 V 20.66 C 7,21.4 7.6,22 8.33,22 h 7.33 C 16.4,22 17,21.4 17,20.67 V 5.33 C 17,4.6 16.4,4 15.67,4 Z"
         id="path2-5"
         style="fill:#626463;fill-opacity:1;stroke:none;stroke-opacity:1" /></g><g
       style="fill:#cccccc"
       id="g17"
       transform="matrix(0.26458333,0,0,0.26458333,171.77605,117.99347)"><path
         d="M 0,0 H 24 V 24 H 0 Z"
         fill="none"
         id="path1-4" /><path
         d="M 2,22 H 22 V 2 Z"
         id="path2-7"
         style="fill:#626463;fill-opacity:1" /></g></g></svg>
