<?xml version="1.0" encoding="UTF-8" standalone="no"?>
<svg
   version="1.1"
   x="0px"
   y="0px"
   viewBox="0 0 2220.3188 375.24005"
   xml:space="preserve"
   id="svg12"
   width="2220.3188"
   height="375.24005"
   xmlns="http://www.w3.org/2000/svg"
   xmlns:svg="http://www.w3.org/2000/svg"><defs
   id="defs12"><rect
     x="801.01697"
     y="8.6440678"
     width="2933.2205"
     height="0"
     id="rect1" /></defs>
<style
   type="text/css"
   id="style1">
	.st0{fill:#FFFFFF;}
	.st1{fill:#FF8800;}
	.st2{display:none;}
	.st3{display:inline;}
	.st4{fill:#023047;}
	.st5{fill:#20272C;}
	.st6{fill:#FFB703;}
	.st7{fill:#054B6E;}
</style>




<g
   id="Layer_1_copy_2"
   transform="matrix(0.79662643,0,0,0.79964811,-229.5718,-101.95513)">
	<g
   id="g12">
		<g
   id="g4">
			<g
   id="g3">
				<g
   id="g2">
					<path
   class="st7"
   d="m 520.85,358.06 c -0.01,0 -0.01,0 0,0 -0.01,0 -0.01,0 -0.01,0.01 0,-0.04 0.01,0.15 0.01,-0.01 z"
   id="path1" />
					<path
   class="st7"
   d="m 623.57,190.08 c -3.29,-21.02 -8.62,-42.29 -21.24,-59.79 -1.63,-2.33 -3.22,-2.17 -5.18,-2.17 -35.13,0 -59.63,-0.12 -79.1,-0.46 -0.16,-0.05 -0.31,-0.1 -0.47,-0.16 -22.22,0.38 -75,0.61 -111.76,0.61 -8.65,-0.65 -17.12,24.52 -19.78,31.77 -17.24,48.72 -2.66,100.97 31.37,138.53 19.45,22.25 44.11,39.17 65.21,59.68 0,-0.01 0,-0.02 0,-0.05 2.38,-4.67 17.96,-17.91 14.91,-21.42 C 444.94,286.72 380.9,232.56 411.35,151.66 l 97.99,-0.31 v -0.01 l 82.31,0.33 c 18,43.67 1.66,95.88 -29.52,128.93 -18.09,19.3 -37.32,37.44 -56.1,56.03 -3.01,3.54 12.42,16.7 14.81,21.42 53.08,-46.69 109.91,-88.6 102.73,-167.97 z"
   id="path2"
   style="fill:#076492;fill-opacity:1" />
				</g>
			</g>
		</g>
		<path
   class="st6"
   d="m 589.57,211.95 c -1.9,6.71 -3.29,13.6 -5.8,20.1 -9.47,24.49 -26.49,44.1 -45.89,62.05 -10.87,10.06 -21.88,19.97 -33.03,30.12 -0.5,0.19 -0.8,0.22 -1.33,0.19 -19.58,-17.49 -39.45,-34.44 -58.13,-52.5 -13.59,-13.15 -24.02,-28.68 -30.32,-46.92 6.7,-8.86 15.69,-14.01 25.82,-17.41 18.07,-6.07 36.5,-5.9 54.74,-1.24 13.3,3.39 26.22,8.08 39.37,12.01 11.04,3.29 22.3,4.51 33.83,2.55 7.74,-1.33 14.31,-4.97 20.74,-8.95 z"
   id="path4" />
		<g
   id="g7">
			<g
   id="g6">
				<g
   id="g5">
					<path
   class="st6"
   d="m 539.16,468.79 c -5.69,9.98 -14.99,20.86 -26,25.62 -12.37,5.35 -26.38,6.41 -40.43,-7.62 -15.4,-15.37 -19.88,-33.97 -17.55,-54.2 3.18,-27.7 18.25,-49.78 39.03,-68.96 7.74,-7.14 7.95,-7.26 15.28,0.54 17.04,18.13 30.23,38.16 34.02,62.52 2.2,14.14 0.48,28.98 -4.03,41.51"
   id="path5" />
				</g>
			</g>
		</g>
		<path
   class="st7"
   d="m 634.68,420.27 c 19.21,-3.06 38.16,2.48 57.07,4.91 6.15,0.79 12.3,0.63 18.7,0.91 -0.45,1.42 -0.85,3.18 -1.53,4.74 -8.57,19.95 -18.18,38.9 -33.41,52.59 -9.15,8.23 -19.16,14.13 -30.8,16.97 -14.13,3.45 -28.19,2.96 -42.73,-1.36 -12.6,-3.74 -25.35,-6.38 -37.91,-9.48 6.86,-12.17 13.36,-25.39 21.22,-37.26 12.18,-18.38 29.28,-27.97 49.39,-32.02 z"
   id="path7"
   style="fill:#076492;fill-opacity:1" />
		<path
   class="st7"
   d="m 386.57,430.39 c 16.07,11.83 26.13,28.9 38.27,43.98 3.94,4.9 8.54,9.21 13.01,13.97 -1.29,0.57 -2.77,1.39 -4.33,1.9 -19.76,6.46 -39.6,11.53 -59.97,9.27 -12.24,-1.36 -23.54,-4.8 -33.94,-11.35 -12.63,-7.94 -22.55,-18.32 -30.22,-31.46 -6.65,-11.39 -14.15,-22.19 -21.21,-33.14 13.25,-2.77 26.93,-6.46 40.71,-8.32 21.32,-2.9 40.28,3.29 57.68,15.15 z"
   id="path8"
   style="fill:#076492;fill-opacity:1" />
		<path
   class="st7"
   d="m 464.66,350.18 c 0.29,-0.12 0.23,-0.08 0.19,-0.09 4.28,3.89 8.66,7.73 12.79,11.81 0.37,0.37 -0.57,2.57 -1.35,3.57 -7.49,9.57 -15.83,18.57 -22.46,28.7 -9.11,13.94 -11.83,29.89 -10.19,46.44 0.43,4.36 2.06,8.61 2.43,13.38 -0.79,-1.14 -1.68,-2.22 -2.37,-3.41 -9.38,-16.15 -9.89,-33.2 -5.46,-50.92 4.69,-18.66 14.23,-34.62 26.42,-49.48 z"
   id="path9"
   style="fill:#076492;fill-opacity:1" />
		<path
   class="st7"
   d="m 538.01,349.91 c -0.28,-0.13 -0.22,-0.09 -0.19,-0.1 -4.3,3.75 -12.86,11.39 -12.86,11.39 0,0 -0.73,0.84 1.19,3.61 5.75,8.25 14.81,19.08 20.92,29.43 8.41,14.23 10.53,30.26 8.38,46.75 -0.57,4.35 -2.29,8.54 -2.81,13.29 0.81,-1.11 1.71,-2.16 2.42,-3.33 9.68,-15.83 10.75,-32.86 7.02,-50.71 -3.92,-18.82 -12.69,-35.08 -24.07,-50.33 z"
   id="path10"
   style="fill:#076492;fill-opacity:1" />
		<path
   class="st7"
   d="m 420.88,427.6 c -0.01,-0.01 -0.02,-0.01 -0.03,-0.02 -8.56,-8.73 -18.4,-15.78 -29.33,-21.51 -6.08,-3.19 -11.89,-6.72 -17.17,-11.07 -9.38,-7.73 -15.91,-17.21 -19.73,-28.35 -3.52,-10.26 -4.73,-20.81 -4.84,-31.47 -0.03,-2.5 0.05,-4.99 0.14,-7.49 0.01,-0.34 0.33,-0.67 0.51,-1 0.48,0.35 1.05,0.63 1.43,1.06 4.24,4.73 9.57,8.04 15.17,11.03 5.35,2.86 10.71,5.7 16,8.68 6.58,3.72 12.15,8.58 17.08,14.58 0.99,1.25 1.8,2.22 2.61,3.19 8.42,12.51 11.74,27.35 13.98,41.63 1.11,7.1 3.36,14.07 4.97,21.34 -0.36,-0.27 -0.36,-0.33 -0.79,-0.6 z"
   id="path11"
   style="fill:#076492;fill-opacity:1" />
		<path
   class="st7"
   d="m 578.23,422.84 c 0,-0.01 0.01,-0.02 0.01,-0.03 5.66,-10.86 9.34,-22.42 11.44,-34.64 1.17,-6.8 2.74,-13.43 5.26,-19.82 4.47,-11.34 11.46,-20.48 20.85,-27.53 8.65,-6.5 18.28,-10.87 28.34,-14.22 2.36,-0.79 4.75,-1.47 7.14,-2.15 0.33,-0.09 0.73,0.12 1.1,0.19 -0.18,0.57 -0.28,1.19 -0.57,1.69 -3.19,5.5 -4.7,11.61 -5.83,17.89 -1.08,6 -2.14,12 -3.35,17.96 -1.51,7.44 -4.43,14.25 -8.61,20.8 -0.88,1.33 -1.55,2.4 -2.23,3.47 -9.29,11.88 -22.33,19.58 -35.18,26.06 -6.39,3.23 -12.3,7.51 -18.7,11.26 0.15,-0.42 0.21,-0.44 0.33,-0.93 z"
   id="path12"
   style="fill:#076392;fill-opacity:1" />
	</g>
</g>

<path
   style="font-weight:bold;font-size:602.223px;line-height:640.158px;font-family:'Nunito Sans';-inkscape-font-specification:'Nunito Sans Bold';text-align:center;letter-spacing:-39.3334px;white-space:pre;fill:#333333;stroke-width:2"
   d="M 46.371173,0 V -424.56723 H 204.1536 q 106.59348,0 164.40689,54.80229 58.41563,54.8023 58.41563,157.18021 0,101.77569 -58.41563,157.180212 Q 310.74708,0 204.1536,0 Z m 77.084547,-63.83564 h 75.8801 q 146.94242,0 146.94242,-148.74909 0,-148.14686 -146.94242,-148.14686 h -75.8801 z M 555.66243,6.0222302 q -31.91782,0 -57.21119,-12.0444604 -24.69114,-12.6466838 -39.14449,-33.7244888 -13.85113,-21.077806 -13.85113,-47.575619 0,-32.520042 16.86224,-51.188962 16.86225,-19.27113 54.8023,-27.70225 37.94005,-8.43113 101.77569,-8.43113 h 21.0778 v -12.64668 q 0,-30.11115 -13.2489,-43.36006 -13.24891,-13.2489 -44.56451,-13.2489 -24.69114,0 -50.58673,7.8289 -25.89559,7.22667 -52.3934,22.88447 l -21.68003,-51.18896 q 15.6578,-10.84001 36.7356,-18.66891 21.68003,-8.43112 45.16673,-12.64668 24.08892,-4.81779 45.16673,-4.81779 64.43786,0 95.75346,30.11115 31.31559,29.50893 31.31559,92.14013 V 0 H 641.1781 V -46.973396 Q 630.94031,-22.282252 608.65806,-7.8288993 586.37581,6.0222302 555.66243,6.0222302 Z m 15.6578,-51.7911802 q 29.50893,0 48.78006,-20.475582 19.87336,-20.475583 19.87336,-51.791178 v -13.24891 h -20.47558 q -56.60896,0 -78.89121,9.03335 -21.68003,8.43112 -21.68003,31.315594 0,19.873359 13.85113,32.520043 13.85113,12.646683 38.54227,12.646683 z m 200.95465,154.16909 54.20007,-120.4446 -122.25127,-282.4426 h 80.09566 l 82.50455,205.960276 84.31123,-205.960276 h 75.88008 L 849.96165,108.40014 Z M 1132.8181,0 V -360.12937 H 987.08015 v -64.43786 h 368.56045 v 64.43786 H 1209.9027 V 0 Z m 323.2056,6.0222302 q -49.9846,0 -86.1179,-18.6689132 -36.1334,-18.668914 -56.0068,-52.995626 -19.2711,-34.326713 -19.2711,-81.300111 0,-45.76895 18.6689,-80.09566 19.2711,-34.32671 52.3934,-53.59785 33.7245,-19.87336 76.4823,-19.87336 62.6312,0 98.7646,39.74672 36.7356,39.74672 36.7356,108.40015 v 22.28225 h -210.7781 q 8.4312,78.891213 90.3335,78.891213 24.6911,0 49.3823,-7.226676 24.6911,-7.828899 45.1667,-24.088921 l 21.0778,50.586734 q -21.0778,17.464467 -52.9956,27.7022588 -31.9178,10.2377914 -63.8356,10.2377914 z M 1445.1836,-249.32033 q -33.1222,0 -53.5978,20.47558 -20.4756,20.47558 -24.6912,55.40452 h 148.1469 q -2.4089,-36.7356 -20.4756,-56.00674 -17.4644,-19.87336 -49.3823,-19.87336 z M 1599.1638,0 v -294.48706 h 73.4712 v 45.16673 q 13.2489,-24.08892 36.7356,-37.33783 23.4867,-13.85113 54.2,-13.85113 66.2446,0 86.7202,57.81341 13.8511,-27.10003 39.7467,-42.15561 25.8956,-15.6578 59.0178,-15.6578 99.3668,0 99.3668,121.04683 V 0 h -75.2778 v -176.45135 q 0,-33.72448 -11.4423,-49.38228 -10.84,-15.6578 -37.3378,-15.6578 -29.5089,0 -46.3712,21.0778 -16.8622,20.47559 -16.8622,57.21119 V 0 h -75.2779 v -176.45135 q 0,-33.72448 -11.4422,-49.38228 -10.8401,-15.6578 -36.7356,-15.6578 -29.509,0 -46.3712,21.0778 -16.8623,20.47559 -16.8623,57.21119 V 0 Z m 487.6122,108.40014 v -402.8872 h 73.4712 v 46.9734 q 12.6467,-24.08892 37.94,-38.54228 25.8956,-14.45335 58.4157,-14.45335 38.5422,0 67.4489,18.66892 29.509,18.66891 45.769,52.99562 16.26,33.72449 16.26,81.30011 0,46.9734 -16.26,81.902331 -16.26,34.326712 -45.1667,52.995626 -28.9067,18.6689132 -68.0512,18.6689132 -31.3156,0 -56.609,-13.2489065 -24.6911,-13.8511297 -37.9401,-36.7356047 V 108.40014 Z m 148.7491,-159.589097 q 33.7244,0 54.2,-24.088921 20.4756,-24.691144 20.4756,-72.266762 0,-48.17784 -20.4756,-71.66454 -20.4756,-24.08892 -54.2,-24.08892 -33.7245,0 -54.2001,24.08892 -20.4756,23.4867 -20.4756,71.66454 0,47.575618 20.4756,72.266762 20.4756,24.088921 54.2001,24.088921 z m 307.5472,57.2111872 q -45.7689,0 -79.4934,-18.6689132 -33.7245,-18.668914 -52.3934,-52.995626 -18.6689,-34.928931 -18.6689,-81.902331 0,-46.9734 18.6689,-81.30011 18.6689,-34.32671 52.3934,-52.99562 33.7245,-18.66892 79.4934,-18.66892 45.769,0 79.4934,18.66892 33.7245,18.66891 52.3935,52.99562 18.6689,34.32671 18.6689,81.30011 0,46.9734 -18.6689,81.902331 -18.669,34.326712 -52.3935,52.995626 -33.7244,18.6689132 -79.4934,18.6689132 z m 0,-57.2111872 q 33.7245,0 54.2001,-24.088921 20.4756,-24.691144 20.4756,-72.266762 0,-48.17784 -20.4756,-71.66454 -20.4756,-24.08892 -54.2001,-24.08892 -33.7245,0 -54.2001,24.08892 -20.4755,23.4867 -20.4755,71.66454 0,47.575618 20.4755,72.266762 20.4756,24.088921 54.2001,24.088921 z"
   id="text1"
   transform="matrix(0.7040582,0,0,0.7040582,323.84792,298.92004)"
   aria-label="DayTempo" /></svg>
